# Tiled2Unity generated file. Do not modify by hand.
# Wavefront file for 'Maison1_mesh_0002.obj'

# Vertices (Count = 756)
v 0 -16 0
v -16 -16 0
v -16 0 0
v 0 0 0
v -16 -16 0
v -32 -16 0
v -32 0 0
v -16 0 0
v -32 -16 0
v -48 -16 0
v -48 0 0
v -32 0 0
v -48 -16 0
v -64 -16 0
v -64 0 0
v -48 0 0
v -64 -16 0
v -80 -16 0
v -80 0 0
v -64 0 0
v -80 -16 0
v -96 -16 0
v -96 0 0
v -80 0 0
v -96 -16 0
v -112 -16 0
v -112 0 0
v -96 0 0
v -112 -16 0
v -128 -16 0
v -128 0 0
v -112 0 0
v -128 -16 0
v -144 -16 0
v -144 0 0
v -128 0 0
v -144 -16 0
v -160 -16 0
v -160 0 0
v -144 0 0
v -160 -16 0
v -176 -16 0
v -176 0 0
v -160 0 0
v -176 -16 0
v -192 -16 0
v -192 0 0
v -176 0 0
v -192 -16 0
v -208 -16 0
v -208 0 0
v -192 0 0
v -208 -16 0
v -224 -16 0
v -224 0 0
v -208 0 0
v -224 -16 0
v -240 -16 0
v -240 0 0
v -224 0 0
v -240 -16 0
v -256 -16 0
v -256 0 0
v -240 0 0
v -256 -16 0
v -272 -16 0
v -272 0 0
v -256 0 0
v -272 -16 0
v -288 -16 0
v -288 0 0
v -272 0 0
v -288 -16 0
v -304 -16 0
v -304 0 0
v -288 0 0
v -304 -16 0
v -320 -16 0
v -320 0 0
v -304 0 0
v -320 -16 0
v -336 -16 0
v -336 0 0
v -320 0 0
v -336 -16 0
v -352 -16 0
v -352 0 0
v -336 0 0
v -352 -16 0
v -368 -16 0
v -368 0 0
v -352 0 0
v -368 -16 0
v -384 -16 0
v -384 0 0
v -368 0 0
v -384 -16 0
v -400 -16 0
v -400 0 0
v -384 0 0
v -400 -16 0
v -416 -16 0
v -416 0 0
v -400 0 0
v -416 -16 0
v -432 -16 0
v -432 0 0
v -416 0 0
v -432 -16 0
v -448 -16 0
v -448 0 0
v -432 0 0
v -448 -16 0
v -464 -16 0
v -464 0 0
v -448 0 0
v -464 -16 0
v -480 -16 0
v -480 0 0
v -464 0 0
v 0 -32 0
v -16 -32 0
v -16 -16 0
v 0 -16 0
v -16 -32 0
v -32 -32 0
v -32 -16 0
v -16 -16 0
v -32 -32 0
v -48 -32 0
v -48 -16 0
v -32 -16 0
v -48 -32 0
v -64 -32 0
v -64 -16 0
v -48 -16 0
v -64 -32 0
v -80 -32 0
v -80 -16 0
v -64 -16 0
v -80 -32 0
v -96 -32 0
v -96 -16 0
v -80 -16 0
v -160 -32 0
v -176 -32 0
v -176 -16 0
v -160 -16 0
v -176 -32 0
v -192 -32 0
v -192 -16 0
v -176 -16 0
v -192 -32 0
v -208 -32 0
v -208 -16 0
v -192 -16 0
v -464 -32 0
v -480 -32 0
v -480 -16 0
v -464 -16 0
v 0 -48 0
v -16 -48 0
v -16 -32 0
v 0 -32 0
v -16 -48 0
v -32 -48 0
v -32 -32 0
v -16 -32 0
v -32 -48 0
v -48 -48 0
v -48 -32 0
v -32 -32 0
v -48 -48 0
v -64 -48 0
v -64 -32 0
v -48 -32 0
v -64 -48 0
v -80 -48 0
v -80 -32 0
v -64 -32 0
v -160 -48 0
v -176 -48 0
v -176 -32 0
v -160 -32 0
v -176 -48 0
v -192 -48 0
v -192 -32 0
v -176 -32 0
v -192 -48 0
v -208 -48 0
v -208 -32 0
v -192 -32 0
v -352 -48 0
v -368 -48 0
v -368 -32 0
v -352 -32 0
v -368 -48 0
v -384 -48 0
v -384 -32 0
v -368 -32 0
v -384 -48 0
v -400 -48 0
v -400 -32 0
v -384 -32 0
v -400 -48 0
v -416 -48 0
v -416 -32 0
v -400 -32 0
v -464 -48 0
v -480 -48 0
v -480 -32 0
v -464 -32 0
v 0 -64 0
v -16 -64 0
v -16 -48 0
v 0 -48 0
v -16 -64 0
v -32 -64 0
v -32 -48 0
v -16 -48 0
v -32 -64 0
v -48 -64 0
v -48 -48 0
v -32 -48 0
v -48 -64 0
v -64 -64 0
v -64 -48 0
v -48 -48 0
v -352 -64 0
v -368 -64 0
v -368 -48 0
v -352 -48 0
v -368 -64 0
v -384 -64 0
v -384 -48 0
v -368 -48 0
v -384 -64 0
v -400 -64 0
v -400 -48 0
v -384 -48 0
v -400 -64 0
v -416 -64 0
v -416 -48 0
v -400 -48 0
v -464 -64 0
v -480 -64 0
v -480 -48 0
v -464 -48 0
v 0 -80 0
v -16 -80 0
v -16 -64 0
v 0 -64 0
v -16 -80 0
v -32 -80 0
v -32 -64 0
v -16 -64 0
v -32 -80 0
v -48 -80 0
v -48 -64 0
v -32 -64 0
v -48 -80 0
v -64 -80 0
v -64 -64 0
v -48 -64 0
v -96 -80 0
v -112 -80 0
v -112 -64 0
v -96 -64 0
v -352 -80 0
v -368 -80 0
v -368 -64 0
v -352 -64 0
v -368 -80 0
v -384 -80 0
v -384 -64 0
v -368 -64 0
v -384 -80 0
v -400 -80 0
v -400 -64 0
v -384 -64 0
v -400 -80 0
v -416 -80 0
v -416 -64 0
v -400 -64 0
v -464 -80 0
v -480 -80 0
v -480 -64 0
v -464 -64 0
v 0 -96 0
v -16 -96 0
v -16 -80 0
v 0 -80 0
v -16 -96 0
v -32 -96 0
v -32 -80 0
v -16 -80 0
v -48 -96 0
v -64 -96 0
v -64 -80 0
v -48 -80 0
v -80 -96 0
v -96 -96 0
v -96 -80 0
v -80 -80 0
v -464 -96 0
v -480 -96 0
v -480 -80 0
v -464 -80 0
v 0 -112 0
v -16 -112 0
v -16 -96 0
v 0 -96 0
v -64 -112 0
v -80 -112 0
v -80 -96 0
v -64 -96 0
v -464 -112 0
v -480 -112 0
v -480 -96 0
v -464 -96 0
v 0 -128 0
v -16 -128 0
v -16 -112 0
v 0 -112 0
v -48 -128 0
v -64 -128 0
v -64 -112 0
v -48 -112 0
v -464 -128 0
v -480 -128 0
v -480 -112 0
v -464 -112 0
v 0 -144 0
v -16 -144 0
v -16 -128 0
v 0 -128 0
v -32 -144 0
v -48 -144 0
v -48 -128 0
v -32 -128 0
v -464 -144 0
v -480 -144 0
v -480 -128 0
v -464 -128 0
v 0 -160 0
v -16 -160 0
v -16 -144 0
v 0 -144 0
v -16 -160 0
v -32 -160 0
v -32 -144 0
v -16 -144 0
v -464 -160 0
v -480 -160 0
v -480 -144 0
v -464 -144 0
v 0 -176 0
v -16 -176 0
v -16 -160 0
v 0 -160 0
v -16 -176 0
v -32 -176 0
v -32 -160 0
v -16 -160 0
v -32 -176 0
v -48 -176 0
v -48 -160 0
v -32 -160 0
v -48 -176 0
v -64 -176 0
v -64 -160 0
v -48 -160 0
v -64 -176 0
v -80 -176 0
v -80 -160 0
v -64 -160 0
v -464 -176 0
v -480 -176 0
v -480 -160 0
v -464 -160 0
v 0 -192 0
v -16 -192 0
v -16 -176 0
v 0 -176 0
v -16 -192 0
v -32 -192 0
v -32 -176 0
v -16 -176 0
v -32 -192 0
v -48 -192 0
v -48 -176 0
v -32 -176 0
v -48 -192 0
v -64 -192 0
v -64 -176 0
v -48 -176 0
v -64 -192 0
v -80 -192 0
v -80 -176 0
v -64 -176 0
v -112 -192 0
v -128 -192 0
v -128 -176 0
v -112 -176 0
v -128 -192 0
v -144 -192 0
v -144 -176 0
v -128 -176 0
v -144 -192 0
v -160 -192 0
v -160 -176 0
v -144 -176 0
v -160 -192 0
v -176 -192 0
v -176 -176 0
v -160 -176 0
v -464 -192 0
v -480 -192 0
v -480 -176 0
v -464 -176 0
v 0 -208 0
v -16 -208 0
v -16 -192 0
v 0 -192 0
v -16 -208 0
v -32 -208 0
v -32 -192 0
v -16 -192 0
v -32 -208 0
v -48 -208 0
v -48 -192 0
v -32 -192 0
v -48 -208 0
v -64 -208 0
v -64 -192 0
v -48 -192 0
v -64 -208 0
v -80 -208 0
v -80 -192 0
v -64 -192 0
v -112 -208 0
v -128 -208 0
v -128 -192 0
v -112 -192 0
v -128 -208 0
v -144 -208 0
v -144 -192 0
v -128 -192 0
v -144 -208 0
v -160 -208 0
v -160 -192 0
v -144 -192 0
v -160 -208 0
v -176 -208 0
v -176 -192 0
v -160 -192 0
v -464 -208 0
v -480 -208 0
v -480 -192 0
v -464 -192 0
v 0 -224 0
v -16 -224 0
v -16 -208 0
v 0 -208 0
v -16 -224 0
v -32 -224 0
v -32 -208 0
v -16 -208 0
v -32 -224 0
v -48 -224 0
v -48 -208 0
v -32 -208 0
v -48 -224 0
v -64 -224 0
v -64 -208 0
v -48 -208 0
v -64 -224 0
v -80 -224 0
v -80 -208 0
v -64 -208 0
v -112 -224 0
v -128 -224 0
v -128 -208 0
v -112 -208 0
v -128 -224 0
v -144 -224 0
v -144 -208 0
v -128 -208 0
v -144 -224 0
v -160 -224 0
v -160 -208 0
v -144 -208 0
v -160 -224 0
v -176 -224 0
v -176 -208 0
v -160 -208 0
v -464 -224 0
v -480 -224 0
v -480 -208 0
v -464 -208 0
v 0 -240 0
v -16 -240 0
v -16 -224 0
v 0 -224 0
v -464 -240 0
v -480 -240 0
v -480 -224 0
v -464 -224 0
v 0 -256 0
v -16 -256 0
v -16 -240 0
v 0 -240 0
v -464 -256 0
v -480 -256 0
v -480 -240 0
v -464 -240 0
v 0 -272 0
v -16 -272 0
v -16 -256 0
v 0 -256 0
v -464 -272 0
v -480 -272 0
v -480 -256 0
v -464 -256 0
v 0 -288 0
v -16 -288 0
v -16 -272 0
v 0 -272 0
v -464 -288 0
v -480 -288 0
v -480 -272 0
v -464 -272 0
v 0 -304 0
v -16 -304 0
v -16 -288 0
v 0 -288 0
v -16 -304 0
v -32 -304 0
v -32 -288 0
v -16 -288 0
v -32 -304 0
v -48 -304 0
v -48 -288 0
v -32 -288 0
v -48 -304 0
v -64 -304 0
v -64 -288 0
v -48 -288 0
v -64 -304 0
v -80 -304 0
v -80 -288 0
v -64 -288 0
v -80 -304 0
v -96 -304 0
v -96 -288 0
v -80 -288 0
v -96 -304 0
v -112 -304 0
v -112 -288 0
v -96 -288 0
v -112 -304 0
v -128 -304 0
v -128 -288 0
v -112 -288 0
v -128 -304 0
v -144 -304 0
v -144 -288 0
v -128 -288 0
v -144 -304 0
v -160 -304 0
v -160 -288 0
v -144 -288 0
v -160 -304 0
v -176 -304 0
v -176 -288 0
v -160 -288 0
v -176 -304 0
v -192 -304 0
v -192 -288 0
v -176 -288 0
v -192 -304 0
v -208 -304 0
v -208 -288 0
v -192 -288 0
v -208 -304 0
v -224 -304 0
v -224 -288 0
v -208 -288 0
v -224 -304 0
v -240 -304 0
v -240 -288 0
v -224 -288 0
v -240 -304 0
v -256 -304 0
v -256 -288 0
v -240 -288 0
v -256 -304 0
v -272 -304 0
v -272 -288 0
v -256 -288 0
v -272 -304 0
v -288 -304 0
v -288 -288 0
v -272 -288 0
v -288 -304 0
v -304 -304 0
v -304 -288 0
v -288 -288 0
v -304 -304 0
v -320 -304 0
v -320 -288 0
v -304 -288 0
v -320 -304 0
v -336 -304 0
v -336 -288 0
v -320 -288 0
v -368 -304 0
v -384 -304 0
v -384 -288 0
v -368 -288 0
v -384 -304 0
v -400 -304 0
v -400 -288 0
v -384 -288 0
v -400 -304 0
v -416 -304 0
v -416 -288 0
v -400 -288 0
v -416 -304 0
v -432 -304 0
v -432 -288 0
v -416 -288 0
v -432 -304 0
v -448 -304 0
v -448 -288 0
v -432 -288 0
v -448 -304 0
v -464 -304 0
v -464 -288 0
v -448 -288 0
v -464 -304 0
v -480 -304 0
v -480 -288 0
v -464 -288 0
v 0 -320 0
v -16 -320 0
v -16 -304 0
v 0 -304 0
v -16 -320 0
v -32 -320 0
v -32 -304 0
v -16 -304 0
v -32 -320 0
v -48 -320 0
v -48 -304 0
v -32 -304 0
v -48 -320 0
v -64 -320 0
v -64 -304 0
v -48 -304 0
v -64 -320 0
v -80 -320 0
v -80 -304 0
v -64 -304 0
v -80 -320 0
v -96 -320 0
v -96 -304 0
v -80 -304 0
v -96 -320 0
v -112 -320 0
v -112 -304 0
v -96 -304 0
v -112 -320 0
v -128 -320 0
v -128 -304 0
v -112 -304 0
v -128 -320 0
v -144 -320 0
v -144 -304 0
v -128 -304 0
v -144 -320 0
v -160 -320 0
v -160 -304 0
v -144 -304 0
v -160 -320 0
v -176 -320 0
v -176 -304 0
v -160 -304 0
v -176 -320 0
v -192 -320 0
v -192 -304 0
v -176 -304 0
v -192 -320 0
v -208 -320 0
v -208 -304 0
v -192 -304 0
v -208 -320 0
v -224 -320 0
v -224 -304 0
v -208 -304 0
v -224 -320 0
v -240 -320 0
v -240 -304 0
v -224 -304 0
v -240 -320 0
v -256 -320 0
v -256 -304 0
v -240 -304 0
v -256 -320 0
v -272 -320 0
v -272 -304 0
v -256 -304 0
v -272 -320 0
v -288 -320 0
v -288 -304 0
v -272 -304 0
v -288 -320 0
v -304 -320 0
v -304 -304 0
v -288 -304 0
v -304 -320 0
v -320 -320 0
v -320 -304 0
v -304 -304 0
v -320 -320 0
v -336 -320 0
v -336 -304 0
v -320 -304 0
v -368 -320 0
v -384 -320 0
v -384 -304 0
v -368 -304 0
v -384 -320 0
v -400 -320 0
v -400 -304 0
v -384 -304 0
v -400 -320 0
v -416 -320 0
v -416 -304 0
v -400 -304 0
v -416 -320 0
v -432 -320 0
v -432 -304 0
v -416 -304 0
v -432 -320 0
v -448 -320 0
v -448 -304 0
v -432 -304 0
v -448 -320 0
v -464 -320 0
v -464 -304 0
v -448 -304 0
v -464 -320 0
v -480 -320 0
v -480 -304 0
v -464 -304 0

# Texture cooridinates (Count = 65)
vt 0.2153846 0.65625
vt 0.2461538 0.65625
vt 0.2461538 0.6875
vt 0.2153846 0.6875
vt 0.2153846 0.625
vt 0.2461538 0.625
vt 0.5538462 0.625
vt 0.5846154 0.625
vt 0.5846154 0.65625
vt 0.5538462 0.65625
vt 0.6153846 0.625
vt 0.6153846 0.65625
vt 0.6461539 0.625
vt 0.6461539 0.65625
vt 0.1846154 0.65625
vt 0.1846154 0.6875
vt 0.5538462 0.59375
vt 0.5846154 0.59375
vt 0.6153846 0.59375
vt 0.6461539 0.59375
vt 0.6153846 0.5625
vt 0.6461539 0.5625
vt 0.6769231 0.5625
vt 0.6769231 0.59375
vt 0.7076923 0.5625
vt 0.7076923 0.59375
vt 0.7384616 0.5625
vt 0.7384616 0.59375
vt 0.6153846 0.53125
vt 0.6461539 0.53125
vt 0.6769231 0.53125
vt 0.7076923 0.53125
vt 0.7384616 0.53125
vt 0.7076923 0.71875
vt 0.7384616 0.71875
vt 0.7384616 0.75
vt 0.7076923 0.75
vt 0.8307692 0.90625
vt 0.8615385 0.90625
vt 0.8615385 0.9375
vt 0.8307692 0.9375
vt 0.6153846 0.5
vt 0.6461539 0.5
vt 0.6769231 0.5
vt 0.7076923 0.5
vt 0.7384616 0.5
vt 0.7076923 0.6875
vt 0.7384616 0.6875
vt 0.2769231 0.65625
vt 0.2769231 0.6875
vt 0.8 0.875
vt 0.8307692 0.875
vt 0.8 0.90625
vt 0.4923077 0.96875
vt 0.523077 0.96875
vt 0.523077 1
vt 0.4923077 1
vt 0.4923077 0.9375
vt 0.523077 0.9375
vt 0.4923077 0.90625
vt 0.523077 0.90625
vt 0.2461538 0.71875
vt 0.2153846 0.71875
vt 0.2769231 0.71875
vt 0.1846154 0.71875

# Normal
vn 0 0 -1

# Mesh description
g Maison1_mesh_0002

# Faces
f 1/1/1 2/2/1 3/3/1 4/4/1
f 5/1/1 6/2/1 7/3/1 8/4/1
f 9/1/1 10/2/1 11/3/1 12/4/1
f 13/1/1 14/2/1 15/3/1 16/4/1
f 17/1/1 18/2/1 19/3/1 20/4/1
f 21/1/1 22/2/1 23/3/1 24/4/1
f 25/1/1 26/2/1 27/3/1 28/4/1
f 29/5/1 30/6/1 31/2/1 32/1/1
f 33/5/1 34/6/1 35/2/1 36/1/1
f 37/5/1 38/6/1 39/2/1 40/1/1
f 41/5/1 42/6/1 43/2/1 44/1/1
f 45/5/1 46/6/1 47/2/1 48/1/1
f 49/5/1 50/6/1 51/2/1 52/1/1
f 53/5/1 54/6/1 55/2/1 56/1/1
f 57/5/1 58/6/1 59/2/1 60/1/1
f 61/5/1 62/6/1 63/2/1 64/1/1
f 65/5/1 66/6/1 67/2/1 68/1/1
f 69/5/1 70/6/1 71/2/1 72/1/1
f 73/5/1 74/6/1 75/2/1 76/1/1
f 77/5/1 78/6/1 79/2/1 80/1/1
f 81/5/1 82/6/1 83/2/1 84/1/1
f 85/5/1 86/6/1 87/2/1 88/1/1
f 89/5/1 90/6/1 91/2/1 92/1/1
f 93/5/1 94/6/1 95/2/1 96/1/1
f 97/5/1 98/6/1 99/2/1 100/1/1
f 101/5/1 102/6/1 103/2/1 104/1/1
f 105/5/1 106/6/1 107/2/1 108/1/1
f 109/5/1 110/6/1 111/2/1 112/1/1
f 113/5/1 114/6/1 115/2/1 116/1/1
f 117/1/1 118/2/1 119/3/1 120/4/1
f 121/1/1 122/2/1 123/3/1 124/4/1
f 125/1/1 126/2/1 127/3/1 128/4/1
f 129/1/1 130/2/1 131/3/1 132/4/1
f 133/1/1 134/2/1 135/3/1 136/4/1
f 137/1/1 138/2/1 139/3/1 140/4/1
f 141/1/1 142/2/1 143/3/1 144/4/1
f 145/7/1 146/8/1 147/9/1 148/10/1
f 149/8/1 150/11/1 151/12/1 152/9/1
f 153/11/1 154/13/1 155/14/1 156/12/1
f 157/15/1 158/1/1 159/4/1 160/16/1
f 161/1/1 162/2/1 163/3/1 164/4/1
f 165/1/1 166/2/1 167/3/1 168/4/1
f 169/1/1 170/2/1 171/3/1 172/4/1
f 173/1/1 174/2/1 175/3/1 176/4/1
f 177/1/1 178/2/1 179/3/1 180/4/1
f 181/17/1 182/18/1 183/8/1 184/7/1
f 185/18/1 186/19/1 187/11/1 188/8/1
f 189/19/1 190/20/1 191/13/1 192/11/1
f 193/21/1 194/22/1 195/20/1 196/19/1
f 197/22/1 198/23/1 199/24/1 200/20/1
f 201/23/1 202/25/1 203/26/1 204/24/1
f 205/25/1 206/27/1 207/28/1 208/26/1
f 209/15/1 210/1/1 211/4/1 212/16/1
f 213/1/1 214/2/1 215/3/1 216/4/1
f 217/1/1 218/2/1 219/3/1 220/4/1
f 221/1/1 222/2/1 223/3/1 224/4/1
f 225/1/1 226/2/1 227/3/1 228/4/1
f 229/29/1 230/30/1 231/22/1 232/21/1
f 233/30/1 234/31/1 235/23/1 236/22/1
f 237/31/1 238/32/1 239/25/1 240/23/1
f 241/32/1 242/33/1 243/27/1 244/25/1
f 245/15/1 246/1/1 247/4/1 248/16/1
f 249/1/1 250/2/1 251/3/1 252/4/1
f 253/1/1 254/2/1 255/3/1 256/4/1
f 257/1/1 258/2/1 259/3/1 260/4/1
f 261/34/1 262/35/1 263/36/1 264/37/1
f 265/38/1 266/39/1 267/40/1 268/41/1
f 269/42/1 270/43/1 271/30/1 272/29/1
f 273/43/1 274/44/1 275/31/1 276/30/1
f 277/44/1 278/45/1 279/32/1 280/31/1
f 281/45/1 282/46/1 283/33/1 284/32/1
f 285/15/1 286/1/1 287/4/1 288/16/1
f 289/1/1 290/2/1 291/3/1 292/4/1
f 293/1/1 294/2/1 295/3/1 296/4/1
f 297/47/1 298/48/1 299/35/1 300/34/1
f 301/38/1 302/39/1 303/40/1 304/41/1
f 305/15/1 306/1/1 307/4/1 308/16/1
f 309/1/1 310/2/1 311/3/1 312/4/1
f 313/38/1 314/39/1 315/40/1 316/41/1
f 317/15/1 318/1/1 319/4/1 320/16/1
f 321/2/1 322/49/1 323/50/1 324/3/1
f 325/38/1 326/39/1 327/40/1 328/41/1
f 329/15/1 330/1/1 331/4/1 332/16/1
f 333/2/1 334/49/1 335/50/1 336/3/1
f 337/38/1 338/39/1 339/40/1 340/41/1
f 341/15/1 342/1/1 343/4/1 344/16/1
f 345/2/1 346/49/1 347/50/1 348/3/1
f 349/51/1 350/52/1 351/38/1 352/53/1
f 353/15/1 354/1/1 355/4/1 356/16/1
f 357/2/1 358/49/1 359/50/1 360/3/1
f 361/5/1 362/6/1 363/2/1 364/1/1
f 365/5/1 366/6/1 367/2/1 368/1/1
f 369/5/1 370/6/1 371/2/1 372/1/1
f 373/5/1 374/6/1 375/2/1 376/1/1
f 377/15/1 378/1/1 379/4/1 380/16/1
f 381/2/1 382/49/1 383/50/1 384/3/1
f 385/54/1 386/55/1 387/56/1 388/57/1
f 389/54/1 390/55/1 391/56/1 392/57/1
f 393/54/1 394/55/1 395/56/1 396/57/1
f 397/54/1 398/55/1 399/56/1 400/57/1
f 401/54/1 402/55/1 403/56/1 404/57/1
f 405/54/1 406/55/1 407/56/1 408/57/1
f 409/54/1 410/55/1 411/56/1 412/57/1
f 413/54/1 414/55/1 415/56/1 416/57/1
f 417/15/1 418/1/1 419/4/1 420/16/1
f 421/2/1 422/49/1 423/50/1 424/3/1
f 425/58/1 426/59/1 427/55/1 428/54/1
f 429/58/1 430/59/1 431/55/1 432/54/1
f 433/58/1 434/59/1 435/55/1 436/54/1
f 437/58/1 438/59/1 439/55/1 440/54/1
f 441/58/1 442/59/1 443/55/1 444/54/1
f 445/58/1 446/59/1 447/55/1 448/54/1
f 449/58/1 450/59/1 451/55/1 452/54/1
f 453/58/1 454/59/1 455/55/1 456/54/1
f 457/15/1 458/1/1 459/4/1 460/16/1
f 461/2/1 462/49/1 463/50/1 464/3/1
f 465/60/1 466/61/1 467/59/1 468/58/1
f 469/60/1 470/61/1 471/59/1 472/58/1
f 473/60/1 474/61/1 475/59/1 476/58/1
f 477/60/1 478/61/1 479/59/1 480/58/1
f 481/60/1 482/61/1 483/59/1 484/58/1
f 485/60/1 486/61/1 487/59/1 488/58/1
f 489/60/1 490/61/1 491/59/1 492/58/1
f 493/60/1 494/61/1 495/59/1 496/58/1
f 497/15/1 498/1/1 499/4/1 500/16/1
f 501/2/1 502/49/1 503/50/1 504/3/1
f 505/15/1 506/1/1 507/4/1 508/16/1
f 509/2/1 510/49/1 511/50/1 512/3/1
f 513/15/1 514/1/1 515/4/1 516/16/1
f 517/2/1 518/49/1 519/50/1 520/3/1
f 521/15/1 522/1/1 523/4/1 524/16/1
f 525/2/1 526/49/1 527/50/1 528/3/1
f 529/15/1 530/1/1 531/4/1 532/16/1
f 533/1/1 534/2/1 535/3/1 536/4/1
f 537/4/1 538/3/1 539/62/1 540/63/1
f 541/4/1 542/3/1 543/62/1 544/63/1
f 545/4/1 546/3/1 547/62/1 548/63/1
f 549/4/1 550/3/1 551/62/1 552/63/1
f 553/4/1 554/3/1 555/62/1 556/63/1
f 557/4/1 558/3/1 559/62/1 560/63/1
f 561/4/1 562/3/1 563/62/1 564/63/1
f 565/4/1 566/3/1 567/62/1 568/63/1
f 569/4/1 570/3/1 571/62/1 572/63/1
f 573/4/1 574/3/1 575/62/1 576/63/1
f 577/4/1 578/3/1 579/62/1 580/63/1
f 581/4/1 582/3/1 583/62/1 584/63/1
f 585/4/1 586/3/1 587/62/1 588/63/1
f 589/4/1 590/3/1 591/62/1 592/63/1
f 593/4/1 594/3/1 595/62/1 596/63/1
f 597/4/1 598/3/1 599/62/1 600/63/1
f 601/4/1 602/3/1 603/62/1 604/63/1
f 605/4/1 606/3/1 607/62/1 608/63/1
f 609/4/1 610/3/1 611/62/1 612/63/1
f 613/3/1 614/50/1 615/64/1 616/62/1
f 617/16/1 618/4/1 619/63/1 620/65/1
f 621/4/1 622/3/1 623/62/1 624/63/1
f 625/4/1 626/3/1 627/62/1 628/63/1
f 629/4/1 630/3/1 631/62/1 632/63/1
f 633/4/1 634/3/1 635/62/1 636/63/1
f 637/4/1 638/3/1 639/62/1 640/63/1
f 641/1/1 642/2/1 643/3/1 644/4/1
f 645/1/1 646/2/1 647/3/1 648/4/1
f 649/1/1 650/2/1 651/3/1 652/4/1
f 653/1/1 654/2/1 655/3/1 656/4/1
f 657/1/1 658/2/1 659/3/1 660/4/1
f 661/1/1 662/2/1 663/3/1 664/4/1
f 665/1/1 666/2/1 667/3/1 668/4/1
f 669/1/1 670/2/1 671/3/1 672/4/1
f 673/1/1 674/2/1 675/3/1 676/4/1
f 677/1/1 678/2/1 679/3/1 680/4/1
f 681/1/1 682/2/1 683/3/1 684/4/1
f 685/1/1 686/2/1 687/3/1 688/4/1
f 689/1/1 690/2/1 691/3/1 692/4/1
f 693/1/1 694/2/1 695/3/1 696/4/1
f 697/1/1 698/2/1 699/3/1 700/4/1
f 701/1/1 702/2/1 703/3/1 704/4/1
f 705/1/1 706/2/1 707/3/1 708/4/1
f 709/1/1 710/2/1 711/3/1 712/4/1
f 713/1/1 714/2/1 715/3/1 716/4/1
f 717/1/1 718/2/1 719/3/1 720/4/1
f 721/1/1 722/2/1 723/3/1 724/4/1
f 725/2/1 726/49/1 727/50/1 728/3/1
f 729/15/1 730/1/1 731/4/1 732/16/1
f 733/1/1 734/2/1 735/3/1 736/4/1
f 737/1/1 738/2/1 739/3/1 740/4/1
f 741/1/1 742/2/1 743/3/1 744/4/1
f 745/1/1 746/2/1 747/3/1 748/4/1
f 749/1/1 750/2/1 751/3/1 752/4/1
f 753/1/1 754/2/1 755/3/1 756/4/1

