# Tiled2Unity generated file. Do not modify by hand.
# Wavefront file for 'Maison1_mesh_0007.obj'

# Vertices (Count = 52)
v -160 -176 0
v -176 -176 0
v -176 -160 0
v -160 -160 0
v -336 -176 0
v -352 -176 0
v -352 -160 0
v -336 -160 0
v -480 -176 0
v -496 -176 0
v -496 -160 0
v -480 -160 0
v -336 -320 0
v -352 -320 0
v -352 -304 0
v -336 -304 0
v -480 -320 0
v -496 -320 0
v -496 -304 0
v -480 -304 0
v -160 -400 0
v -176 -400 0
v -176 -384 0
v -160 -384 0
v -480 -400 0
v -496 -400 0
v -496 -384 0
v -480 -384 0
v -160 -544 0
v -176 -544 0
v -176 -528 0
v -160 -528 0
v -288 -544 0
v -304 -544 0
v -304 -528 0
v -288 -528 0
v -320 -544 0
v -336 -544 0
v -336 -528 0
v -320 -528 0
v -480 -544 0
v -496 -544 0
v -496 -528 0
v -480 -528 0
v -288 -560 0
v -304 -560 0
v -304 -544 0
v -288 -544 0
v -320 -560 0
v -336 -560 0
v -336 -544 0
v -320 -544 0

# Texture cooridinates (Count = 9)
vt 0.3666667 0.1
vt 0.4 0.1
vt 0.4 0.15
vt 0.3666667 0.15
vt 0.3333333 0.1
vt 0.3333333 0.15
vt 0.4 0.2
vt 0.3666667 0.2
vt 0.3333333 0.2

# Normal
vn 0 0 -1

# Mesh description
g Maison1_mesh_0007

# Faces
f 1/1/1 2/2/1 3/3/1 4/4/1
f 5/5/1 6/1/1 7/4/1 8/6/1
f 9/5/1 10/1/1 11/4/1 12/6/1
f 13/4/1 14/3/1 15/7/1 16/8/1
f 17/5/1 18/1/1 19/4/1 20/6/1
f 21/4/1 22/3/1 23/7/1 24/8/1
f 25/5/1 26/1/1 27/4/1 28/6/1
f 29/4/1 30/3/1 31/7/1 32/8/1
f 33/6/1 34/4/1 35/8/1 36/9/1
f 37/4/1 38/3/1 39/7/1 40/8/1
f 41/6/1 42/4/1 43/8/1 44/9/1
f 45/4/1 46/3/1 47/7/1 48/8/1
f 49/6/1 50/4/1 51/8/1 52/9/1

