# Tiled2Unity generated file. Do not modify by hand.
# Wavefront file for 'Osarian_Outside_01_mesh_0005.obj'

# Vertices (Count = 152)
v -336 -176 0
v -352 -176 0
v -352 -160 0
v -336 -160 0
v -320 -192 0
v -336 -192 0
v -336 -176 0
v -320 -176 0
v -336 -192 0
v -352 -192 0
v -352 -176 0
v -336 -176 0
v -352 -192 0
v -368 -192 0
v -368 -176 0
v -352 -176 0
v -288 -208 0
v -304 -208 0
v -304 -192 0
v -288 -192 0
v -304 -208 0
v -320 -208 0
v -320 -192 0
v -304 -192 0
v -320 -208 0
v -336 -208 0
v -336 -192 0
v -320 -192 0
v -336 -208 0
v -352 -208 0
v -352 -192 0
v -336 -192 0
v -352 -208 0
v -368 -208 0
v -368 -192 0
v -352 -192 0
v -368 -208 0
v -384 -208 0
v -384 -192 0
v -368 -192 0
v -288 -224 0
v -304 -224 0
v -304 -208 0
v -288 -208 0
v -304 -224 0
v -320 -224 0
v -320 -208 0
v -304 -208 0
v -320 -224 0
v -336 -224 0
v -336 -208 0
v -320 -208 0
v -336 -224 0
v -352 -224 0
v -352 -208 0
v -336 -208 0
v -352 -224 0
v -368 -224 0
v -368 -208 0
v -352 -208 0
v -368 -224 0
v -384 -224 0
v -384 -208 0
v -368 -208 0
v -384 -224 0
v -400 -224 0
v -400 -208 0
v -384 -208 0
v -912 -256 0
v -928 -256 0
v -928 -240 0
v -912 -240 0
v -928 -256 0
v -944 -256 0
v -944 -240 0
v -928 -240 0
v -944 -256 0
v -960 -256 0
v -960 -240 0
v -944 -240 0
v -960 -256 0
v -976 -256 0
v -976 -240 0
v -960 -240 0
v -912 -272 0
v -928 -272 0
v -928 -256 0
v -912 -256 0
v -928 -272 0
v -944 -272 0
v -944 -256 0
v -928 -256 0
v -944 -272 0
v -960 -272 0
v -960 -256 0
v -944 -256 0
v -960 -272 0
v -976 -272 0
v -976 -256 0
v -960 -256 0
v -912 -288 0
v -928 -288 0
v -928 -272 0
v -912 -272 0
v -928 -288 0
v -944 -288 0
v -944 -272 0
v -928 -272 0
v -944 -288 0
v -960 -288 0
v -960 -272 0
v -944 -272 0
v -960 -288 0
v -976 -288 0
v -976 -272 0
v -960 -272 0
v -912 -304 0
v -928 -304 0
v -928 -288 0
v -912 -288 0
v -928 -304 0
v -944 -304 0
v -944 -288 0
v -928 -288 0
v -944 -304 0
v -960 -304 0
v -960 -288 0
v -944 -288 0
v -960 -304 0
v -976 -304 0
v -976 -288 0
v -960 -288 0
v -752 -336 0
v -768 -336 0
v -768 -320 0
v -752 -320 0
v -768 -336 0
v -784 -336 0
v -784 -320 0
v -768 -320 0
v -784 -336 0
v -800 -336 0
v -800 -320 0
v -784 -320 0
v -800 -336 0
v -816 -336 0
v -816 -320 0
v -800 -320 0
v -816 -336 0
v -832 -336 0
v -832 -320 0
v -816 -320 0

# Texture cooridinates (Count = 65)
vt 0.7 0.125
vt 0.7333333 0.125
vt 0.7333333 0.1875
vt 0.7 0.1875
vt 0.6666667 0.125
vt 0.6666667 0.1875
vt 0.7 0.0625
vt 0.7333333 0.0625
vt 0.7666667 0.125
vt 0.7666667 0.1875
vt 0.8666667 0.875
vt 0.9 0.875
vt 0.9 0.9375
vt 0.8666667 0.9375
vt 0.9333333 0.875
vt 0.9333333 0.9375
vt 0.6666667 0.0625
vt 0.7666667 0.0625
vt 0.8666667 0.8125
vt 0.9 0.8125
vt 0.9333333 0.8125
vt 0.8 0.0625
vt 0.8 0.125
vt 0.8666667 0.25
vt 0.9 0.25
vt 0.9 0.3125
vt 0.8666667 0.3125
vt 0.9333333 0.25
vt 0.9333333 0.3125
vt 0.9666666 0.25
vt 0.9666666 0.3125
vt 1 0.25
vt 1 0.3125
vt 0.8666667 0.1875
vt 0.9 0.1875
vt 0.9333333 0.375
vt 0.9666666 0.375
vt 0.9666666 0.4375
vt 0.9333333 0.4375
vt 1 0.375
vt 1 0.4375
vt 0.9666666 0.1875
vt 1 0.1875
vt 0.8666667 0.125
vt 0.9 0.125
vt 0.9666666 0.125
vt 1 0.125
vt 0.8666667 0.0625
vt 0.9 0.0625
vt 0.9333333 0.0625
vt 0.9333333 0.125
vt 0.9666666 0.0625
vt 1 0.0625
vt 0.8 0.5
vt 0.8333333 0.5
vt 0.8333333 0.5625
vt 0.8 0.5625
vt 0.8666667 0.5
vt 0.8666667 0.5625
vt 0.9 0.5
vt 0.9 0.5625
vt 0.9333333 0.5
vt 0.9333333 0.5625
vt 0.9666666 0.5
vt 0.9666666 0.5625

# Normal
vn 0 0 -1

# Mesh description
g Osarian_Outside_01_mesh_0005

# Faces
f 1/1/1 2/2/1 3/3/1 4/4/1
f 5/5/1 6/1/1 7/4/1 8/6/1
f 9/7/1 10/8/1 11/2/1 12/1/1
f 13/2/1 14/9/1 15/10/1 16/3/1
f 17/11/1 18/12/1 19/13/1 20/14/1
f 21/12/1 22/15/1 23/16/1 24/13/1
f 25/17/1 26/7/1 27/1/1 28/5/1
f 29/7/1 30/8/1 31/2/1 32/1/1
f 33/8/1 34/18/1 35/9/1 36/2/1
f 37/2/1 38/9/1 39/10/1 40/3/1
f 41/19/1 42/20/1 43/12/1 44/11/1
f 45/20/1 46/21/1 47/15/1 48/12/1
f 49/17/1 50/7/1 51/1/1 52/5/1
f 53/7/1 54/8/1 55/2/1 56/1/1
f 57/8/1 58/18/1 59/9/1 60/2/1
f 61/8/1 62/18/1 63/9/1 64/2/1
f 65/18/1 66/22/1 67/23/1 68/9/1
f 69/24/1 70/25/1 71/26/1 72/27/1
f 73/25/1 74/28/1 75/29/1 76/26/1
f 77/28/1 78/30/1 79/31/1 80/29/1
f 81/30/1 82/32/1 83/33/1 84/31/1
f 85/34/1 86/35/1 87/25/1 88/24/1
f 89/36/1 90/37/1 91/38/1 92/39/1
f 93/37/1 94/40/1 95/41/1 96/38/1
f 97/42/1 98/43/1 99/32/1 100/30/1
f 101/44/1 102/45/1 103/35/1 104/34/1
f 105/29/1 106/31/1 107/37/1 108/36/1
f 109/31/1 110/33/1 111/40/1 112/37/1
f 113/46/1 114/47/1 115/43/1 116/42/1
f 117/48/1 118/49/1 119/45/1 120/44/1
f 121/49/1 122/50/1 123/51/1 124/45/1
f 125/50/1 126/52/1 127/46/1 128/51/1
f 129/52/1 130/53/1 131/47/1 132/46/1
f 133/54/1 134/55/1 135/56/1 136/57/1
f 137/55/1 138/58/1 139/59/1 140/56/1
f 141/58/1 142/60/1 143/61/1 144/59/1
f 145/60/1 146/62/1 147/63/1 148/61/1
f 149/62/1 150/64/1 151/65/1 152/63/1

