# Tiled2Unity generated file. Do not modify by hand.
# Wavefront file for 'Osarian_Outside_01_mesh_0003.obj'

# Vertices (Count = 548)
v -288 -240 0
v -304 -240 0
v -304 -224 0
v -288 -224 0
v -304 -240 0
v -320 -240 0
v -320 -224 0
v -304 -224 0
v -320 -240 0
v -336 -240 0
v -336 -224 0
v -320 -224 0
v -336 -240 0
v -352 -240 0
v -352 -224 0
v -336 -224 0
v -352 -240 0
v -368 -240 0
v -368 -224 0
v -352 -224 0
v -368 -240 0
v -384 -240 0
v -384 -224 0
v -368 -224 0
v -384 -240 0
v -400 -240 0
v -400 -224 0
v -384 -224 0
v -288 -256 0
v -304 -256 0
v -304 -240 0
v -288 -240 0
v -304 -256 0
v -320 -256 0
v -320 -240 0
v -304 -240 0
v -320 -256 0
v -336 -256 0
v -336 -240 0
v -320 -240 0
v -336 -256 0
v -352 -256 0
v -352 -240 0
v -336 -240 0
v -352 -256 0
v -368 -256 0
v -368 -240 0
v -352 -240 0
v -368 -256 0
v -384 -256 0
v -384 -240 0
v -368 -240 0
v -384 -256 0
v -400 -256 0
v -400 -240 0
v -384 -240 0
v -896 -256 0
v -912 -256 0
v -912 -240 0
v -896 -240 0
v -288 -272 0
v -304 -272 0
v -304 -256 0
v -288 -256 0
v -304 -272 0
v -320 -272 0
v -320 -256 0
v -304 -256 0
v -320 -272 0
v -336 -272 0
v -336 -256 0
v -320 -256 0
v -336 -272 0
v -352 -272 0
v -352 -256 0
v -336 -256 0
v -352 -272 0
v -368 -272 0
v -368 -256 0
v -352 -256 0
v -368 -272 0
v -384 -272 0
v -384 -256 0
v -368 -256 0
v -384 -272 0
v -400 -272 0
v -400 -256 0
v -384 -256 0
v -288 -288 0
v -304 -288 0
v -304 -272 0
v -288 -272 0
v -304 -288 0
v -320 -288 0
v -320 -272 0
v -304 -272 0
v -320 -288 0
v -336 -288 0
v -336 -272 0
v -320 -272 0
v -336 -288 0
v -352 -288 0
v -352 -272 0
v -336 -272 0
v -352 -288 0
v -368 -288 0
v -368 -272 0
v -352 -272 0
v -368 -288 0
v -384 -288 0
v -384 -272 0
v -368 -272 0
v -384 -288 0
v -400 -288 0
v -400 -272 0
v -384 -272 0
v -992 -288 0
v -1008 -288 0
v -1008 -272 0
v -992 -272 0
v -288 -304 0
v -304 -304 0
v -304 -288 0
v -288 -288 0
v -304 -304 0
v -320 -304 0
v -320 -288 0
v -304 -288 0
v -320 -304 0
v -336 -304 0
v -336 -288 0
v -320 -288 0
v -336 -304 0
v -352 -304 0
v -352 -288 0
v -336 -288 0
v -352 -304 0
v -368 -304 0
v -368 -288 0
v -352 -288 0
v -368 -304 0
v -384 -304 0
v -384 -288 0
v -368 -288 0
v -384 -304 0
v -400 -304 0
v -400 -288 0
v -384 -288 0
v -736 -304 0
v -752 -304 0
v -752 -288 0
v -736 -288 0
v -752 -304 0
v -768 -304 0
v -768 -288 0
v -752 -288 0
v -768 -304 0
v -784 -304 0
v -784 -288 0
v -768 -288 0
v -784 -304 0
v -800 -304 0
v -800 -288 0
v -784 -288 0
v -800 -304 0
v -816 -304 0
v -816 -288 0
v -800 -288 0
v -816 -304 0
v -832 -304 0
v -832 -288 0
v -816 -288 0
v -832 -304 0
v -848 -304 0
v -848 -288 0
v -832 -288 0
v -864 -304 0
v -880 -304 0
v -880 -288 0
v -864 -288 0
v -288 -320 0
v -304 -320 0
v -304 -304 0
v -288 -304 0
v -304 -320 0
v -320 -320 0
v -320 -304 0
v -304 -304 0
v -320 -320 0
v -336 -320 0
v -336 -304 0
v -320 -304 0
v -336 -320 0
v -352 -320 0
v -352 -304 0
v -336 -304 0
v -352 -320 0
v -368 -320 0
v -368 -304 0
v -352 -304 0
v -368 -320 0
v -384 -320 0
v -384 -304 0
v -368 -304 0
v -384 -320 0
v -400 -320 0
v -400 -304 0
v -384 -304 0
v -736 -320 0
v -752 -320 0
v -752 -304 0
v -736 -304 0
v -752 -320 0
v -768 -320 0
v -768 -304 0
v -752 -304 0
v -768 -320 0
v -784 -320 0
v -784 -304 0
v -768 -304 0
v -784 -320 0
v -800 -320 0
v -800 -304 0
v -784 -304 0
v -800 -320 0
v -816 -320 0
v -816 -304 0
v -800 -304 0
v -816 -320 0
v -832 -320 0
v -832 -304 0
v -816 -304 0
v -832 -320 0
v -848 -320 0
v -848 -304 0
v -832 -304 0
v -912 -320 0
v -928 -320 0
v -928 -304 0
v -912 -304 0
v -928 -320 0
v -944 -320 0
v -944 -304 0
v -928 -304 0
v -944 -320 0
v -960 -320 0
v -960 -304 0
v -944 -304 0
v -960 -320 0
v -976 -320 0
v -976 -304 0
v -960 -304 0
v -288 -336 0
v -304 -336 0
v -304 -320 0
v -288 -320 0
v -304 -336 0
v -320 -336 0
v -320 -320 0
v -304 -320 0
v -320 -336 0
v -336 -336 0
v -336 -320 0
v -320 -320 0
v -336 -336 0
v -352 -336 0
v -352 -320 0
v -336 -320 0
v -352 -336 0
v -368 -336 0
v -368 -320 0
v -352 -320 0
v -368 -336 0
v -384 -336 0
v -384 -320 0
v -368 -320 0
v -384 -336 0
v -400 -336 0
v -400 -320 0
v -384 -320 0
v -736 -336 0
v -752 -336 0
v -752 -320 0
v -736 -320 0
v -752 -336 0
v -768 -336 0
v -768 -320 0
v -752 -320 0
v -768 -336 0
v -784 -336 0
v -784 -320 0
v -768 -320 0
v -784 -336 0
v -800 -336 0
v -800 -320 0
v -784 -320 0
v -800 -336 0
v -816 -336 0
v -816 -320 0
v -800 -320 0
v -816 -336 0
v -832 -336 0
v -832 -320 0
v -816 -320 0
v -832 -336 0
v -848 -336 0
v -848 -320 0
v -832 -320 0
v -288 -352 0
v -304 -352 0
v -304 -336 0
v -288 -336 0
v -304 -352 0
v -320 -352 0
v -320 -336 0
v -304 -336 0
v -320 -352 0
v -336 -352 0
v -336 -336 0
v -320 -336 0
v -336 -352 0
v -352 -352 0
v -352 -336 0
v -336 -336 0
v -352 -352 0
v -368 -352 0
v -368 -336 0
v -352 -336 0
v -368 -352 0
v -384 -352 0
v -384 -336 0
v -368 -336 0
v -384 -352 0
v -400 -352 0
v -400 -336 0
v -384 -336 0
v -736 -352 0
v -752 -352 0
v -752 -336 0
v -736 -336 0
v -752 -352 0
v -768 -352 0
v -768 -336 0
v -752 -336 0
v -768 -352 0
v -784 -352 0
v -784 -336 0
v -768 -336 0
v -784 -352 0
v -800 -352 0
v -800 -336 0
v -784 -336 0
v -800 -352 0
v -816 -352 0
v -816 -336 0
v -800 -336 0
v -816 -352 0
v -832 -352 0
v -832 -336 0
v -816 -336 0
v -832 -352 0
v -848 -352 0
v -848 -336 0
v -832 -336 0
v -912 -352 0
v -928 -352 0
v -928 -336 0
v -912 -336 0
v -288 -368 0
v -304 -368 0
v -304 -352 0
v -288 -352 0
v -304 -368 0
v -320 -368 0
v -320 -352 0
v -304 -352 0
v -320 -368 0
v -336 -368 0
v -336 -352 0
v -320 -352 0
v -336 -368 0
v -352 -368 0
v -352 -352 0
v -336 -352 0
v -352 -368 0
v -368 -368 0
v -368 -352 0
v -352 -352 0
v -368 -368 0
v -384 -368 0
v -384 -352 0
v -368 -352 0
v -384 -368 0
v -400 -368 0
v -400 -352 0
v -384 -352 0
v -880 -368 0
v -896 -368 0
v -896 -352 0
v -880 -352 0
v -384 -496 0
v -400 -496 0
v -400 -480 0
v -384 -480 0
v -400 -496 0
v -416 -496 0
v -416 -480 0
v -400 -480 0
v -416 -496 0
v -432 -496 0
v -432 -480 0
v -416 -480 0
v -432 -496 0
v -448 -496 0
v -448 -480 0
v -432 -480 0
v -448 -496 0
v -464 -496 0
v -464 -480 0
v -448 -480 0
v -384 -512 0
v -400 -512 0
v -400 -496 0
v -384 -496 0
v -400 -512 0
v -416 -512 0
v -416 -496 0
v -400 -496 0
v -416 -512 0
v -432 -512 0
v -432 -496 0
v -416 -496 0
v -432 -512 0
v -448 -512 0
v -448 -496 0
v -432 -496 0
v -448 -512 0
v -464 -512 0
v -464 -496 0
v -448 -496 0
v -384 -528 0
v -400 -528 0
v -400 -512 0
v -384 -512 0
v -400 -528 0
v -416 -528 0
v -416 -512 0
v -400 -512 0
v -416 -528 0
v -432 -528 0
v -432 -512 0
v -416 -512 0
v -432 -528 0
v -448 -528 0
v -448 -512 0
v -432 -512 0
v -448 -528 0
v -464 -528 0
v -464 -512 0
v -448 -512 0
v -384 -544 0
v -400 -544 0
v -400 -528 0
v -384 -528 0
v -400 -544 0
v -416 -544 0
v -416 -528 0
v -400 -528 0
v -416 -544 0
v -432 -544 0
v -432 -528 0
v -416 -528 0
v -432 -544 0
v -448 -544 0
v -448 -528 0
v -432 -528 0
v -448 -544 0
v -464 -544 0
v -464 -528 0
v -448 -528 0
v -384 -560 0
v -400 -560 0
v -400 -544 0
v -384 -544 0
v -400 -560 0
v -416 -560 0
v -416 -544 0
v -400 -544 0
v -416 -560 0
v -432 -560 0
v -432 -544 0
v -416 -544 0
v -432 -560 0
v -448 -560 0
v -448 -544 0
v -432 -544 0
v -448 -560 0
v -464 -560 0
v -464 -544 0
v -448 -544 0
v -384 -576 0
v -400 -576 0
v -400 -560 0
v -384 -560 0
v -400 -576 0
v -416 -576 0
v -416 -560 0
v -400 -560 0
v -416 -576 0
v -432 -576 0
v -432 -560 0
v -416 -560 0
v -432 -576 0
v -448 -576 0
v -448 -560 0
v -432 -560 0
v -448 -576 0
v -464 -576 0
v -464 -560 0
v -448 -560 0
v -384 -592 0
v -400 -592 0
v -400 -576 0
v -384 -576 0
v -400 -592 0
v -416 -592 0
v -416 -576 0
v -400 -576 0
v -416 -592 0
v -432 -592 0
v -432 -576 0
v -416 -576 0
v -432 -592 0
v -448 -592 0
v -448 -576 0
v -432 -576 0
v -448 -592 0
v -464 -592 0
v -464 -576 0
v -448 -576 0
v -384 -608 0
v -400 -608 0
v -400 -592 0
v -384 -592 0
v -448 -608 0
v -464 -608 0
v -464 -592 0
v -448 -592 0

# Texture cooridinates (Count = 129)
vt 0.4 0.875
vt 0.4333333 0.875
vt 0.4333333 0.9375
vt 0.4 0.9375
vt 0.4666667 0.9375
vt 0.4666667 1
vt 0.4333333 1
vt 0.4 1
vt 0.5 0.9375
vt 0.5333334 0.9375
vt 0.5333334 1
vt 0.5 1
vt 0.5333334 0.875
vt 0.5666667 0.875
vt 0.5666667 0.9375
vt 0.5666667 0.4375
vt 0.6 0.4375
vt 0.6 0.5
vt 0.5666667 0.5
vt 0.8 0.375
vt 0.8333333 0.375
vt 0.8333333 0.4375
vt 0.8 0.4375
vt 0.4666667 0.875
vt 0.5666667 0.375
vt 0.6 0.375
vt 0.5 0.875
vt 0.4333333 0.8125
vt 0.4666667 0.8125
vt 0.5666667 0.3125
vt 0.6 0.3125
vt 0.5 0.8125
vt 0.5333334 0.8125
vt 0.8 0.25
vt 0.8333333 0.25
vt 0.8333333 0.3125
vt 0.8 0.3125
vt 0.4 0.8125
vt 0.5666667 0.8125
vt 0.8 0.625
vt 0.8333333 0.625
vt 0.8333333 0.6875
vt 0.8 0.6875
vt 0.8666667 0.625
vt 0.8666667 0.6875
vt 0.9 0.625
vt 0.9 0.6875
vt 0.9333333 0.625
vt 0.9333333 0.6875
vt 0.9666666 0.625
vt 0.9666666 0.6875
vt 1 0.625
vt 1 0.6875
vt 0.9666666 0.5
vt 1 0.5
vt 1 0.5625
vt 0.9666666 0.5625
vt 0.8666667 0.3125
vt 0.9 0.3125
vt 0.9 0.375
vt 0.8666667 0.375
vt 0.4 0.75
vt 0.4333333 0.75
vt 0.4666667 0.75
vt 0.5 0.75
vt 0.8 0.5625
vt 0.8333333 0.5625
vt 0.8666667 0.5625
vt 0.9 0.5625
vt 0.9333333 0.5625
vt 0.9666666 0.4375
vt 1 0.4375
vt 0.8666667 0
vt 0.9 0
vt 0.9 0.0625
vt 0.8666667 0.0625
vt 0.9333333 0
vt 0.9333333 0.0625
vt 0.9666666 0
vt 0.9666666 0.0625
vt 1 0
vt 1 0.0625
vt 0.4 0.6875
vt 0.4333333 0.6875
vt 0.4666667 0.6875
vt 0.5 0.6875
vt 0.5666667 0.125
vt 0.6 0.125
vt 0.6 0.1875
vt 0.5666667 0.1875
vt 0.4 0.625
vt 0.4333333 0.625
vt 0.4666667 0.625
vt 0.7 0.9375
vt 0.7333333 0.9375
vt 0.7333333 1
vt 0.7 1
vt 0.7666667 0.9375
vt 0.7666667 1
vt 0.8 0.9375
vt 0.8 1
vt 0.5 0.625
vt 0.8333333 0.5
vt 0.8 0.5
vt 0.8666667 0.4375
vt 0.8666667 0.5
vt 0.9 0.4375
vt 0.9 0.5
vt 0.9333333 0.4375
vt 0.9333333 0.5
vt 0.4 0.5625
vt 0.4333333 0.5625
vt 0.4666667 0.5625
vt 0.7 0.875
vt 0.7333333 0.875
vt 0.7666667 0.875
vt 0.8 0.875
vt 0.5 0.5625
vt 0.9666666 0.75
vt 0.9333333 0.75
vt 0.5 0
vt 0.5333334 0
vt 0.5333334 0.0625
vt 0.5 0.0625
vt 0.5666667 0
vt 0.5666667 0.0625
vt 0.6 0
vt 0.6 0.0625
vt 1 0.75

# Normal
vn 0 0 -1

# Mesh description
g Osarian_Outside_01_mesh_0003

# Faces
f 1/1/1 2/2/1 3/3/1 4/4/1
f 5/3/1 6/5/1 7/6/1 8/7/1
f 9/3/1 10/5/1 11/6/1 12/7/1
f 13/4/1 14/3/1 15/7/1 16/8/1
f 17/9/1 18/10/1 19/11/1 20/12/1
f 21/9/1 22/10/1 23/11/1 24/12/1
f 25/13/1 26/14/1 27/15/1 28/10/1
f 29/1/1 30/2/1 31/3/1 32/4/1
f 33/3/1 34/5/1 35/6/1 36/7/1
f 37/3/1 38/5/1 39/6/1 40/7/1
f 41/16/1 42/17/1 43/18/1 44/19/1
f 45/9/1 46/10/1 47/11/1 48/12/1
f 49/9/1 50/10/1 51/11/1 52/12/1
f 53/13/1 54/14/1 55/15/1 56/10/1
f 57/20/1 58/21/1 59/22/1 60/23/1
f 61/1/1 62/2/1 63/3/1 64/4/1
f 65/3/1 66/5/1 67/6/1 68/7/1
f 69/2/1 70/24/1 71/5/1 72/3/1
f 73/25/1 74/26/1 75/17/1 76/16/1
f 77/27/1 78/13/1 79/10/1 80/9/1
f 81/9/1 82/10/1 83/11/1 84/12/1
f 85/13/1 86/14/1 87/15/1 88/10/1
f 89/1/1 90/2/1 91/3/1 92/4/1
f 93/2/1 94/24/1 95/5/1 96/3/1
f 97/28/1 98/29/1 99/24/1 100/2/1
f 101/30/1 102/31/1 103/26/1 104/25/1
f 105/32/1 106/33/1 107/13/1 108/27/1
f 109/27/1 110/13/1 111/10/1 112/9/1
f 113/13/1 114/14/1 115/15/1 116/10/1
f 117/34/1 118/35/1 119/36/1 120/37/1
f 121/38/1 122/28/1 123/2/1 124/1/1
f 125/28/1 126/29/1 127/24/1 128/2/1
f 129/29/1 130/32/1 131/27/1 132/24/1
f 133/29/1 134/32/1 135/27/1 136/24/1
f 137/29/1 138/32/1 139/27/1 140/24/1
f 141/32/1 142/33/1 143/13/1 144/27/1
f 145/33/1 146/39/1 147/14/1 148/13/1
f 149/40/1 150/41/1 151/42/1 152/43/1
f 153/41/1 154/44/1 155/45/1 156/42/1
f 157/44/1 158/46/1 159/47/1 160/45/1
f 161/46/1 162/48/1 163/49/1 164/47/1
f 165/48/1 166/50/1 167/51/1 168/49/1
f 169/50/1 170/52/1 171/53/1 172/51/1
f 173/54/1 174/55/1 175/56/1 176/57/1
f 177/58/1 178/59/1 179/60/1 180/61/1
f 181/62/1 182/63/1 183/28/1 184/38/1
f 185/63/1 186/64/1 187/29/1 188/28/1
f 189/63/1 190/64/1 191/29/1 192/28/1
f 193/63/1 194/64/1 195/29/1 196/28/1
f 197/63/1 198/64/1 199/29/1 200/28/1
f 201/63/1 202/64/1 203/29/1 204/28/1
f 205/64/1 206/65/1 207/32/1 208/29/1
f 209/66/1 210/67/1 211/41/1 212/40/1
f 213/67/1 214/68/1 215/44/1 216/41/1
f 217/68/1 218/69/1 219/46/1 220/44/1
f 221/69/1 222/70/1 223/48/1 224/46/1
f 225/70/1 226/57/1 227/50/1 228/48/1
f 229/57/1 230/56/1 231/52/1 232/50/1
f 233/71/1 234/72/1 235/55/1 236/54/1
f 237/73/1 238/74/1 239/75/1 240/76/1
f 241/74/1 242/77/1 243/78/1 244/75/1
f 245/77/1 246/79/1 247/80/1 248/78/1
f 249/79/1 250/81/1 251/82/1 252/80/1
f 253/83/1 254/84/1 255/63/1 256/62/1
f 257/84/1 258/85/1 259/64/1 260/63/1
f 261/84/1 262/85/1 263/64/1 264/63/1
f 265/84/1 266/85/1 267/64/1 268/63/1
f 269/84/1 270/85/1 271/64/1 272/63/1
f 273/84/1 274/85/1 275/64/1 276/63/1
f 277/85/1 278/86/1 279/65/1 280/64/1
f 281/40/1 282/41/1 283/42/1 284/43/1
f 285/87/1 286/88/1 287/89/1 288/90/1
f 289/87/1 290/88/1 291/89/1 292/90/1
f 293/87/1 294/88/1 295/89/1 296/90/1
f 297/87/1 298/88/1 299/89/1 300/90/1
f 301/87/1 302/88/1 303/89/1 304/90/1
f 305/54/1 306/55/1 307/56/1 308/57/1
f 309/91/1 310/92/1 311/84/1 312/83/1
f 313/92/1 314/93/1 315/85/1 316/84/1
f 317/94/1 318/95/1 319/96/1 320/97/1
f 321/95/1 322/98/1 323/99/1 324/96/1
f 325/98/1 326/100/1 327/101/1 328/99/1
f 329/92/1 330/93/1 331/85/1 332/84/1
f 333/93/1 334/102/1 335/86/1 336/85/1
f 337/66/1 338/67/1 339/41/1 340/40/1
f 341/23/1 342/22/1 343/103/1 344/104/1
f 345/22/1 346/105/1 347/106/1 348/103/1
f 349/105/1 350/107/1 351/108/1 352/106/1
f 353/107/1 354/109/1 355/110/1 356/108/1
f 357/109/1 358/71/1 359/54/1 360/110/1
f 361/71/1 362/72/1 363/55/1 364/54/1
f 365/37/1 366/36/1 367/21/1 368/20/1
f 369/111/1 370/112/1 371/92/1 372/91/1
f 373/112/1 374/113/1 375/93/1 376/92/1
f 377/114/1 378/115/1 379/95/1 380/94/1
f 381/115/1 382/116/1 383/98/1 384/95/1
f 385/116/1 386/117/1 387/100/1 388/98/1
f 389/112/1 390/113/1 391/93/1 392/92/1
f 393/113/1 394/118/1 395/102/1 396/93/1
f 397/21/1 398/61/1 399/105/1 400/22/1
f 401/49/1 402/51/1 403/119/1 404/120/1
f 405/121/1 406/122/1 407/123/1 408/124/1
f 409/122/1 410/125/1 411/126/1 412/123/1
f 413/125/1 414/127/1 415/128/1 416/126/1
f 417/51/1 418/53/1 419/129/1 420/119/1
f 421/49/1 422/51/1 423/119/1 424/120/1
f 425/121/1 426/122/1 427/123/1 428/124/1
f 429/122/1 430/125/1 431/126/1 432/123/1
f 433/125/1 434/127/1 435/128/1 436/126/1
f 437/51/1 438/53/1 439/129/1 440/119/1
f 441/49/1 442/51/1 443/119/1 444/120/1
f 445/121/1 446/122/1 447/123/1 448/124/1
f 449/122/1 450/125/1 451/126/1 452/123/1
f 453/125/1 454/127/1 455/128/1 456/126/1
f 457/51/1 458/53/1 459/129/1 460/119/1
f 461/49/1 462/51/1 463/119/1 464/120/1
f 465/121/1 466/122/1 467/123/1 468/124/1
f 469/122/1 470/125/1 471/126/1 472/123/1
f 473/125/1 474/127/1 475/128/1 476/126/1
f 477/51/1 478/53/1 479/129/1 480/119/1
f 481/49/1 482/51/1 483/119/1 484/120/1
f 485/121/1 486/122/1 487/123/1 488/124/1
f 489/122/1 490/125/1 491/126/1 492/123/1
f 493/125/1 494/127/1 495/128/1 496/126/1
f 497/51/1 498/53/1 499/129/1 500/119/1
f 501/49/1 502/51/1 503/119/1 504/120/1
f 505/121/1 506/122/1 507/123/1 508/124/1
f 509/122/1 510/125/1 511/126/1 512/123/1
f 513/125/1 514/127/1 515/128/1 516/126/1
f 517/51/1 518/53/1 519/129/1 520/119/1
f 521/49/1 522/51/1 523/119/1 524/120/1
f 525/121/1 526/122/1 527/123/1 528/124/1
f 529/122/1 530/125/1 531/126/1 532/123/1
f 533/125/1 534/127/1 535/128/1 536/126/1
f 537/51/1 538/53/1 539/129/1 540/119/1
f 541/66/1 542/67/1 543/41/1 544/40/1
f 545/71/1 546/72/1 547/55/1 548/54/1

