# Tiled2Unity generated file. Do not modify by hand.
# Wavefront file for 'Foret_des_Espoirs_mesh_0003.obj'

# Vertices (Count = 488)
v -384 -208 0
v -400 -208 0
v -400 -192 0
v -384 -192 0
v -400 -208 0
v -416 -208 0
v -416 -192 0
v -400 -192 0
v -416 -208 0
v -432 -208 0
v -432 -192 0
v -416 -192 0
v -368 -224 0
v -384 -224 0
v -384 -208 0
v -368 -208 0
v -384 -224 0
v -400 -224 0
v -400 -208 0
v -384 -208 0
v -400 -224 0
v -416 -224 0
v -416 -208 0
v -400 -208 0
v -416 -224 0
v -432 -224 0
v -432 -208 0
v -416 -208 0
v -368 -240 0
v -384 -240 0
v -384 -224 0
v -368 -224 0
v -384 -240 0
v -400 -240 0
v -400 -224 0
v -384 -224 0
v -400 -240 0
v -416 -240 0
v -416 -224 0
v -400 -224 0
v -432 -256 0
v -448 -256 0
v -448 -240 0
v -432 -240 0
v -448 -256 0
v -464 -256 0
v -464 -240 0
v -448 -240 0
v -464 -256 0
v -480 -256 0
v -480 -240 0
v -464 -240 0
v -480 -256 0
v -496 -256 0
v -496 -240 0
v -480 -240 0
v -400 -272 0
v -416 -272 0
v -416 -256 0
v -400 -256 0
v -416 -272 0
v -432 -272 0
v -432 -256 0
v -416 -256 0
v -432 -272 0
v -448 -272 0
v -448 -256 0
v -432 -256 0
v -448 -272 0
v -464 -272 0
v -464 -256 0
v -448 -256 0
v -464 -272 0
v -480 -272 0
v -480 -256 0
v -464 -256 0
v -480 -272 0
v -496 -272 0
v -496 -256 0
v -480 -256 0
v -272 -288 0
v -288 -288 0
v -288 -272 0
v -272 -272 0
v -288 -288 0
v -304 -288 0
v -304 -272 0
v -288 -272 0
v -304 -288 0
v -320 -288 0
v -320 -272 0
v -304 -272 0
v -400 -288 0
v -416 -288 0
v -416 -272 0
v -400 -272 0
v -416 -288 0
v -432 -288 0
v -432 -272 0
v -416 -272 0
v -432 -288 0
v -448 -288 0
v -448 -272 0
v -432 -272 0
v -448 -288 0
v -464 -288 0
v -464 -272 0
v -448 -272 0
v -464 -288 0
v -480 -288 0
v -480 -272 0
v -464 -272 0
v -240 -304 0
v -256 -304 0
v -256 -288 0
v -240 -288 0
v -256 -304 0
v -272 -304 0
v -272 -288 0
v -256 -288 0
v -272 -304 0
v -288 -304 0
v -288 -288 0
v -272 -288 0
v -288 -304 0
v -304 -304 0
v -304 -288 0
v -288 -288 0
v -304 -304 0
v -320 -304 0
v -320 -288 0
v -304 -288 0
v -320 -304 0
v -336 -304 0
v -336 -288 0
v -320 -288 0
v -336 -304 0
v -352 -304 0
v -352 -288 0
v -336 -288 0
v -400 -304 0
v -416 -304 0
v -416 -288 0
v -400 -288 0
v -416 -304 0
v -432 -304 0
v -432 -288 0
v -416 -288 0
v -432 -304 0
v -448 -304 0
v -448 -288 0
v -432 -288 0
v -448 -304 0
v -464 -304 0
v -464 -288 0
v -448 -288 0
v -240 -320 0
v -256 -320 0
v -256 -304 0
v -240 -304 0
v -256 -320 0
v -272 -320 0
v -272 -304 0
v -256 -304 0
v -272 -320 0
v -288 -320 0
v -288 -304 0
v -272 -304 0
v -288 -320 0
v -304 -320 0
v -304 -304 0
v -288 -304 0
v -304 -320 0
v -320 -320 0
v -320 -304 0
v -304 -304 0
v -320 -320 0
v -336 -320 0
v -336 -304 0
v -320 -304 0
v -336 -320 0
v -352 -320 0
v -352 -304 0
v -336 -304 0
v -352 -320 0
v -368 -320 0
v -368 -304 0
v -352 -304 0
v -368 -320 0
v -384 -320 0
v -384 -304 0
v -368 -304 0
v -384 -320 0
v -400 -320 0
v -400 -304 0
v -384 -304 0
v -144 -336 0
v -160 -336 0
v -160 -320 0
v -144 -320 0
v -160 -336 0
v -176 -336 0
v -176 -320 0
v -160 -320 0
v -176 -336 0
v -192 -336 0
v -192 -320 0
v -176 -320 0
v -192 -336 0
v -208 -336 0
v -208 -320 0
v -192 -320 0
v -208 -336 0
v -224 -336 0
v -224 -320 0
v -208 -320 0
v -240 -336 0
v -256 -336 0
v -256 -320 0
v -240 -320 0
v -256 -336 0
v -272 -336 0
v -272 -320 0
v -256 -320 0
v -288 -336 0
v -304 -336 0
v -304 -320 0
v -288 -320 0
v -304 -336 0
v -320 -336 0
v -320 -320 0
v -304 -320 0
v -320 -336 0
v -336 -336 0
v -336 -320 0
v -320 -320 0
v -336 -336 0
v -352 -336 0
v -352 -320 0
v -336 -320 0
v -352 -336 0
v -368 -336 0
v -368 -320 0
v -352 -320 0
v -368 -336 0
v -384 -336 0
v -384 -320 0
v -368 -320 0
v -128 -352 0
v -144 -352 0
v -144 -336 0
v -128 -336 0
v -144 -352 0
v -160 -352 0
v -160 -336 0
v -144 -336 0
v -160 -352 0
v -176 -352 0
v -176 -336 0
v -160 -336 0
v -176 -352 0
v -192 -352 0
v -192 -336 0
v -176 -336 0
v -192 -352 0
v -208 -352 0
v -208 -336 0
v -192 -336 0
v -208 -352 0
v -224 -352 0
v -224 -336 0
v -208 -336 0
v -224 -352 0
v -240 -352 0
v -240 -336 0
v -224 -336 0
v -288 -352 0
v -304 -352 0
v -304 -336 0
v -288 -336 0
v -304 -352 0
v -320 -352 0
v -320 -336 0
v -304 -336 0
v -320 -352 0
v -336 -352 0
v -336 -336 0
v -320 -336 0
v -336 -352 0
v -352 -352 0
v -352 -336 0
v -336 -336 0
v -64 -368 0
v -80 -368 0
v -80 -352 0
v -64 -352 0
v -80 -368 0
v -96 -368 0
v -96 -352 0
v -80 -352 0
v -128 -368 0
v -144 -368 0
v -144 -352 0
v -128 -352 0
v -144 -368 0
v -160 -368 0
v -160 -352 0
v -144 -352 0
v -160 -368 0
v -176 -368 0
v -176 -352 0
v -160 -352 0
v -176 -368 0
v -192 -368 0
v -192 -352 0
v -176 -352 0
v -192 -368 0
v -208 -368 0
v -208 -352 0
v -192 -352 0
v -208 -368 0
v -224 -368 0
v -224 -352 0
v -208 -352 0
v -224 -368 0
v -240 -368 0
v -240 -352 0
v -224 -352 0
v -240 -368 0
v -256 -368 0
v -256 -352 0
v -240 -352 0
v -288 -368 0
v -304 -368 0
v -304 -352 0
v -288 -352 0
v -304 -368 0
v -320 -368 0
v -320 -352 0
v -304 -352 0
v -16 -384 0
v -32 -384 0
v -32 -368 0
v -16 -368 0
v -32 -384 0
v -48 -384 0
v -48 -368 0
v -32 -368 0
v -48 -384 0
v -64 -384 0
v -64 -368 0
v -48 -368 0
v -64 -384 0
v -80 -384 0
v -80 -368 0
v -64 -368 0
v -80 -384 0
v -96 -384 0
v -96 -368 0
v -80 -368 0
v -96 -384 0
v -112 -384 0
v -112 -368 0
v -96 -368 0
v -144 -384 0
v -160 -384 0
v -160 -368 0
v -144 -368 0
v -160 -384 0
v -176 -384 0
v -176 -368 0
v -160 -368 0
v -176 -384 0
v -192 -384 0
v -192 -368 0
v -176 -368 0
v -224 -384 0
v -240 -384 0
v -240 -368 0
v -224 -368 0
v -240 -384 0
v -256 -384 0
v -256 -368 0
v -240 -368 0
v -16 -400 0
v -32 -400 0
v -32 -384 0
v -16 -384 0
v -32 -400 0
v -48 -400 0
v -48 -384 0
v -32 -384 0
v -48 -400 0
v -64 -400 0
v -64 -384 0
v -48 -384 0
v -64 -400 0
v -80 -400 0
v -80 -384 0
v -64 -384 0
v -80 -400 0
v -96 -400 0
v -96 -384 0
v -80 -384 0
v -96 -400 0
v -112 -400 0
v -112 -384 0
v -96 -384 0
v -112 -400 0
v -128 -400 0
v -128 -384 0
v -112 -384 0
v -144 -400 0
v -160 -400 0
v -160 -384 0
v -144 -384 0
v -160 -400 0
v -176 -400 0
v -176 -384 0
v -160 -384 0
v -176 -400 0
v -192 -400 0
v -192 -384 0
v -176 -384 0
v -16 -416 0
v -32 -416 0
v -32 -400 0
v -16 -400 0
v -32 -416 0
v -48 -416 0
v -48 -400 0
v -32 -400 0
v -48 -416 0
v -64 -416 0
v -64 -400 0
v -48 -400 0
v -64 -416 0
v -80 -416 0
v -80 -400 0
v -64 -400 0
v -80 -416 0
v -96 -416 0
v -96 -400 0
v -80 -400 0
v -96 -416 0
v -112 -416 0
v -112 -400 0
v -96 -400 0
v -112 -416 0
v -128 -416 0
v -128 -400 0
v -112 -400 0
v 0 -432 0
v -16 -432 0
v -16 -416 0
v 0 -416 0
v -48 -432 0
v -64 -432 0
v -64 -416 0
v -48 -416 0
v -64 -432 0
v -80 -432 0
v -80 -416 0
v -64 -416 0
v -80 -432 0
v -96 -432 0
v -96 -416 0
v -80 -416 0
v -96 -432 0
v -112 -432 0
v -112 -416 0
v -96 -416 0
v -112 -432 0
v -128 -432 0
v -128 -416 0
v -112 -416 0
v 0 -448 0
v -16 -448 0
v -16 -432 0
v 0 -432 0
v -64 -448 0
v -80 -448 0
v -80 -432 0
v -64 -432 0
v -80 -448 0
v -96 -448 0
v -96 -432 0
v -80 -432 0

# Texture cooridinates (Count = 22)
vt 0 0.1176471
vt 0.03333334 0.1176471
vt 0.03333334 0.1764706
vt 0 0.1764706
vt 0.06666667 0.1176471
vt 0.06666667 0.1764706
vt 0.1 0.1176471
vt 0.1 0.1764706
vt 0.1 0.2352941
vt 0.06666667 0.2352941
vt 0.03333334 0.2352941
vt 0.06666667 0.2941176
vt 0.03333334 0.2941176
vt 0.06666667 0
vt 0.1 0
vt 0.1 0.05882353
vt 0.06666667 0.05882353
vt 0 0
vt 0.03333334 0
vt 0.03333334 0.05882353
vt 0 0.05882353
vt 0.1 0.2941176

# Normal
vn 0 0 -1

# Mesh description
g Foret_des_Espoirs_mesh_0003

# Faces
f 1/1/1 2/2/1 3/3/1 4/4/1
f 5/2/1 6/5/1 7/6/1 8/3/1
f 9/5/1 10/7/1 11/8/1 12/6/1
f 13/1/1 14/2/1 15/3/1 16/4/1
f 17/6/1 18/8/1 19/9/1 20/10/1
f 21/11/1 22/10/1 23/12/1 24/13/1
f 25/14/1 26/15/1 27/16/1 28/17/1
f 29/18/1 30/19/1 31/20/1 32/21/1
f 33/19/1 34/14/1 35/17/1 36/20/1
f 37/14/1 38/15/1 39/16/1 40/17/1
f 41/1/1 42/2/1 43/3/1 44/4/1
f 45/2/1 46/5/1 47/6/1 48/3/1
f 49/2/1 50/5/1 51/6/1 52/3/1
f 53/5/1 54/7/1 55/8/1 56/6/1
f 57/1/1 58/2/1 59/3/1 60/4/1
f 61/2/1 62/5/1 63/6/1 64/3/1
f 65/6/1 66/8/1 67/9/1 68/10/1
f 69/20/1 70/17/1 71/5/1 72/2/1
f 73/11/1 74/10/1 75/12/1 76/13/1
f 77/14/1 78/15/1 79/16/1 80/17/1
f 81/1/1 82/2/1 83/3/1 84/4/1
f 85/2/1 86/5/1 87/6/1 88/3/1
f 89/5/1 90/7/1 91/8/1 92/6/1
f 93/21/1 94/20/1 95/2/1 96/1/1
f 97/20/1 98/17/1 99/5/1 100/2/1
f 101/20/1 102/17/1 103/5/1 104/2/1
f 105/11/1 106/10/1 107/12/1 108/13/1
f 109/14/1 110/15/1 111/16/1 112/17/1
f 113/1/1 114/2/1 115/3/1 116/4/1
f 117/2/1 118/5/1 119/6/1 120/3/1
f 121/6/1 122/8/1 123/9/1 124/10/1
f 125/20/1 126/17/1 127/5/1 128/2/1
f 129/3/1 130/6/1 131/10/1 132/11/1
f 133/2/1 134/5/1 135/6/1 136/3/1
f 137/5/1 138/7/1 139/8/1 140/6/1
f 141/18/1 142/19/1 143/20/1 144/21/1
f 145/19/1 146/14/1 147/17/1 148/20/1
f 149/19/1 150/14/1 151/17/1 152/20/1
f 153/14/1 154/15/1 155/16/1 156/17/1
f 157/21/1 158/20/1 159/2/1 160/1/1
f 161/11/1 162/10/1 163/12/1 164/13/1
f 165/19/1 166/14/1 167/17/1 168/20/1
f 169/10/1 170/9/1 171/22/1 172/12/1
f 173/20/1 174/17/1 175/5/1 176/2/1
f 177/20/1 178/17/1 179/5/1 180/2/1
f 181/3/1 182/6/1 183/10/1 184/11/1
f 185/2/1 186/5/1 187/6/1 188/3/1
f 189/2/1 190/5/1 191/6/1 192/3/1
f 193/5/1 194/7/1 195/8/1 196/6/1
f 197/1/1 198/2/1 199/3/1 200/4/1
f 201/2/1 202/5/1 203/6/1 204/3/1
f 205/2/1 206/5/1 207/6/1 208/3/1
f 209/2/1 210/5/1 211/6/1 212/3/1
f 213/5/1 214/7/1 215/8/1 216/6/1
f 217/18/1 218/19/1 219/20/1 220/21/1
f 221/14/1 222/15/1 223/16/1 224/17/1
f 225/21/1 226/20/1 227/2/1 228/1/1
f 229/20/1 230/17/1 231/5/1 232/2/1
f 233/20/1 234/17/1 235/5/1 236/2/1
f 237/11/1 238/10/1 239/12/1 240/13/1
f 241/19/1 242/14/1 243/17/1 244/20/1
f 245/19/1 246/14/1 247/17/1 248/20/1
f 249/1/1 250/2/1 251/3/1 252/4/1
f 253/6/1 254/8/1 255/9/1 256/10/1
f 257/20/1 258/17/1 259/5/1 260/2/1
f 261/20/1 262/17/1 263/5/1 264/2/1
f 265/20/1 266/17/1 267/5/1 268/2/1
f 269/3/1 270/6/1 271/10/1 272/11/1
f 273/2/1 274/5/1 275/6/1 276/3/1
f 277/21/1 278/20/1 279/2/1 280/1/1
f 281/11/1 282/10/1 283/12/1 284/13/1
f 285/19/1 286/14/1 287/17/1 288/20/1
f 289/14/1 290/15/1 291/16/1 292/17/1
f 293/1/1 294/2/1 295/3/1 296/4/1
f 297/5/1 298/7/1 299/8/1 300/6/1
f 301/18/1 302/19/1 303/20/1 304/21/1
f 305/10/1 306/9/1 307/22/1 308/12/1
f 309/20/1 310/17/1 311/5/1 312/2/1
f 313/11/1 314/10/1 315/12/1 316/13/1
f 317/19/1 318/14/1 319/17/1 320/20/1
f 321/19/1 322/14/1 323/17/1 324/20/1
f 325/10/1 326/9/1 327/22/1 328/12/1
f 329/17/1 330/16/1 331/7/1 332/5/1
f 333/18/1 334/19/1 335/20/1 336/21/1
f 337/14/1 338/15/1 339/16/1 340/17/1
f 341/1/1 342/2/1 343/3/1 344/4/1
f 345/2/1 346/5/1 347/6/1 348/3/1
f 349/2/1 350/5/1 351/6/1 352/3/1
f 353/6/1 354/8/1 355/9/1 356/10/1
f 357/3/1 358/6/1 359/10/1 360/11/1
f 361/5/1 362/7/1 363/8/1 364/6/1
f 365/21/1 366/20/1 367/2/1 368/1/1
f 369/20/1 370/17/1 371/5/1 372/2/1
f 373/17/1 374/16/1 375/7/1 376/5/1
f 377/18/1 378/19/1 379/20/1 380/21/1
f 381/14/1 382/15/1 383/16/1 384/17/1
f 385/21/1 386/20/1 387/2/1 388/1/1
f 389/20/1 390/17/1 391/5/1 392/2/1
f 393/20/1 394/17/1 395/5/1 396/2/1
f 397/20/1 398/17/1 399/5/1 400/2/1
f 401/20/1 402/17/1 403/5/1 404/2/1
f 405/3/1 406/6/1 407/10/1 408/11/1
f 409/5/1 410/7/1 411/8/1 412/6/1
f 413/18/1 414/19/1 415/20/1 416/21/1
f 417/19/1 418/14/1 419/17/1 420/20/1
f 421/14/1 422/15/1 423/16/1 424/17/1
f 425/18/1 426/19/1 427/20/1 428/21/1
f 429/19/1 430/14/1 431/17/1 432/20/1
f 433/10/1 434/9/1 435/22/1 436/12/1
f 437/20/1 438/17/1 439/5/1 440/2/1
f 441/20/1 442/17/1 443/5/1 444/2/1
f 445/20/1 446/17/1 447/5/1 448/2/1
f 449/17/1 450/16/1 451/7/1 452/5/1
f 453/5/1 454/7/1 455/8/1 456/6/1
f 457/18/1 458/19/1 459/20/1 460/21/1
f 461/10/1 462/9/1 463/22/1 464/12/1
f 465/11/1 466/10/1 467/12/1 468/13/1
f 469/19/1 470/14/1 471/17/1 472/20/1
f 473/14/1 474/15/1 475/16/1 476/17/1
f 477/14/1 478/15/1 479/16/1 480/17/1
f 481/18/1 482/19/1 483/20/1 484/21/1
f 485/14/1 486/15/1 487/16/1 488/17/1

