# Tiled2Unity generated file. Do not modify by hand.
# Wavefront file for 'Foret_des_Espoirs_mesh_0002.obj'

# Vertices (Count = 492)
v -352 -96 0
v -368 -96 0
v -368 -80 0
v -352 -80 0
v -368 -96 0
v -384 -96 0
v -384 -80 0
v -368 -80 0
v -384 -96 0
v -400 -96 0
v -400 -80 0
v -384 -80 0
v -400 -96 0
v -416 -96 0
v -416 -80 0
v -400 -80 0
v -416 -96 0
v -432 -96 0
v -432 -80 0
v -416 -80 0
v -432 -96 0
v -448 -96 0
v -448 -80 0
v -432 -80 0
v -448 -96 0
v -464 -96 0
v -464 -80 0
v -448 -80 0
v -464 -96 0
v -480 -96 0
v -480 -80 0
v -464 -80 0
v -352 -112 0
v -368 -112 0
v -368 -96 0
v -352 -96 0
v -368 -112 0
v -384 -112 0
v -384 -96 0
v -368 -96 0
v -384 -112 0
v -400 -112 0
v -400 -96 0
v -384 -96 0
v -400 -112 0
v -416 -112 0
v -416 -96 0
v -400 -96 0
v -416 -112 0
v -432 -112 0
v -432 -96 0
v -416 -96 0
v -432 -112 0
v -448 -112 0
v -448 -96 0
v -432 -96 0
v -448 -112 0
v -464 -112 0
v -464 -96 0
v -448 -96 0
v -464 -112 0
v -480 -112 0
v -480 -96 0
v -464 -96 0
v -272 -128 0
v -288 -128 0
v -288 -112 0
v -272 -112 0
v -288 -128 0
v -304 -128 0
v -304 -112 0
v -288 -112 0
v -304 -128 0
v -320 -128 0
v -320 -112 0
v -304 -112 0
v -368 -128 0
v -384 -128 0
v -384 -112 0
v -368 -112 0
v -384 -128 0
v -400 -128 0
v -400 -112 0
v -384 -112 0
v -400 -128 0
v -416 -128 0
v -416 -112 0
v -400 -112 0
v -416 -128 0
v -432 -128 0
v -432 -112 0
v -416 -112 0
v -432 -128 0
v -448 -128 0
v -448 -112 0
v -432 -112 0
v -448 -128 0
v -464 -128 0
v -464 -112 0
v -448 -112 0
v -240 -144 0
v -256 -144 0
v -256 -128 0
v -240 -128 0
v -256 -144 0
v -272 -144 0
v -272 -128 0
v -256 -128 0
v -272 -144 0
v -288 -144 0
v -288 -128 0
v -272 -128 0
v -288 -144 0
v -304 -144 0
v -304 -128 0
v -288 -128 0
v -304 -144 0
v -320 -144 0
v -320 -128 0
v -304 -128 0
v -320 -144 0
v -336 -144 0
v -336 -128 0
v -320 -128 0
v -336 -144 0
v -352 -144 0
v -352 -128 0
v -336 -128 0
v -400 -144 0
v -416 -144 0
v -416 -128 0
v -400 -128 0
v -416 -144 0
v -432 -144 0
v -432 -128 0
v -416 -128 0
v -432 -144 0
v -448 -144 0
v -448 -128 0
v -432 -128 0
v -448 -144 0
v -464 -144 0
v -464 -128 0
v -448 -128 0
v -240 -160 0
v -256 -160 0
v -256 -144 0
v -240 -144 0
v -256 -160 0
v -272 -160 0
v -272 -144 0
v -256 -144 0
v -272 -160 0
v -288 -160 0
v -288 -144 0
v -272 -144 0
v -288 -160 0
v -304 -160 0
v -304 -144 0
v -288 -144 0
v -304 -160 0
v -320 -160 0
v -320 -144 0
v -304 -144 0
v -320 -160 0
v -336 -160 0
v -336 -144 0
v -320 -144 0
v -336 -160 0
v -352 -160 0
v -352 -144 0
v -336 -144 0
v -352 -160 0
v -368 -160 0
v -368 -144 0
v -352 -144 0
v -368 -160 0
v -384 -160 0
v -384 -144 0
v -368 -144 0
v -384 -160 0
v -400 -160 0
v -400 -144 0
v -384 -144 0
v -144 -176 0
v -160 -176 0
v -160 -160 0
v -144 -160 0
v -160 -176 0
v -176 -176 0
v -176 -160 0
v -160 -160 0
v -176 -176 0
v -192 -176 0
v -192 -160 0
v -176 -160 0
v -192 -176 0
v -208 -176 0
v -208 -160 0
v -192 -160 0
v -208 -176 0
v -224 -176 0
v -224 -160 0
v -208 -160 0
v -240 -176 0
v -256 -176 0
v -256 -160 0
v -240 -160 0
v -256 -176 0
v -272 -176 0
v -272 -160 0
v -256 -160 0
v -272 -176 0
v -288 -176 0
v -288 -160 0
v -272 -160 0
v -288 -176 0
v -304 -176 0
v -304 -160 0
v -288 -160 0
v -304 -176 0
v -320 -176 0
v -320 -160 0
v -304 -160 0
v -320 -176 0
v -336 -176 0
v -336 -160 0
v -320 -160 0
v -336 -176 0
v -352 -176 0
v -352 -160 0
v -336 -160 0
v -352 -176 0
v -368 -176 0
v -368 -160 0
v -352 -160 0
v -368 -176 0
v -384 -176 0
v -384 -160 0
v -368 -160 0
v -128 -192 0
v -144 -192 0
v -144 -176 0
v -128 -176 0
v -144 -192 0
v -160 -192 0
v -160 -176 0
v -144 -176 0
v -160 -192 0
v -176 -192 0
v -176 -176 0
v -160 -176 0
v -176 -192 0
v -192 -192 0
v -192 -176 0
v -176 -176 0
v -192 -192 0
v -208 -192 0
v -208 -176 0
v -192 -176 0
v -208 -192 0
v -224 -192 0
v -224 -176 0
v -208 -176 0
v -224 -192 0
v -240 -192 0
v -240 -176 0
v -224 -176 0
v -256 -192 0
v -272 -192 0
v -272 -176 0
v -256 -176 0
v -272 -192 0
v -288 -192 0
v -288 -176 0
v -272 -176 0
v -288 -192 0
v -304 -192 0
v -304 -176 0
v -288 -176 0
v -304 -192 0
v -320 -192 0
v -320 -176 0
v -304 -176 0
v -320 -192 0
v -336 -192 0
v -336 -176 0
v -320 -176 0
v -336 -192 0
v -352 -192 0
v -352 -176 0
v -336 -176 0
v -64 -208 0
v -80 -208 0
v -80 -192 0
v -64 -192 0
v -80 -208 0
v -96 -208 0
v -96 -192 0
v -80 -192 0
v -128 -208 0
v -144 -208 0
v -144 -192 0
v -128 -192 0
v -144 -208 0
v -160 -208 0
v -160 -192 0
v -144 -192 0
v -160 -208 0
v -176 -208 0
v -176 -192 0
v -160 -192 0
v -176 -208 0
v -192 -208 0
v -192 -192 0
v -176 -192 0
v -192 -208 0
v -208 -208 0
v -208 -192 0
v -192 -192 0
v -208 -208 0
v -224 -208 0
v -224 -192 0
v -208 -192 0
v -224 -208 0
v -240 -208 0
v -240 -192 0
v -224 -192 0
v -240 -208 0
v -256 -208 0
v -256 -192 0
v -240 -192 0
v -272 -208 0
v -288 -208 0
v -288 -192 0
v -272 -192 0
v -288 -208 0
v -304 -208 0
v -304 -192 0
v -288 -192 0
v -304 -208 0
v -320 -208 0
v -320 -192 0
v -304 -192 0
v -16 -224 0
v -32 -224 0
v -32 -208 0
v -16 -208 0
v -32 -224 0
v -48 -224 0
v -48 -208 0
v -32 -208 0
v -48 -224 0
v -64 -224 0
v -64 -208 0
v -48 -208 0
v -64 -224 0
v -80 -224 0
v -80 -208 0
v -64 -208 0
v -80 -224 0
v -96 -224 0
v -96 -208 0
v -80 -208 0
v -96 -224 0
v -112 -224 0
v -112 -208 0
v -96 -208 0
v -144 -224 0
v -160 -224 0
v -160 -208 0
v -144 -208 0
v -160 -224 0
v -176 -224 0
v -176 -208 0
v -160 -208 0
v -176 -224 0
v -192 -224 0
v -192 -208 0
v -176 -208 0
v -224 -224 0
v -240 -224 0
v -240 -208 0
v -224 -208 0
v -240 -224 0
v -256 -224 0
v -256 -208 0
v -240 -208 0
v -16 -240 0
v -32 -240 0
v -32 -224 0
v -16 -224 0
v -32 -240 0
v -48 -240 0
v -48 -224 0
v -32 -224 0
v -48 -240 0
v -64 -240 0
v -64 -224 0
v -48 -224 0
v -64 -240 0
v -80 -240 0
v -80 -224 0
v -64 -224 0
v -80 -240 0
v -96 -240 0
v -96 -224 0
v -80 -224 0
v -96 -240 0
v -112 -240 0
v -112 -224 0
v -96 -224 0
v -112 -240 0
v -128 -240 0
v -128 -224 0
v -112 -224 0
v -144 -240 0
v -160 -240 0
v -160 -224 0
v -144 -224 0
v -160 -240 0
v -176 -240 0
v -176 -224 0
v -160 -224 0
v -176 -240 0
v -192 -240 0
v -192 -224 0
v -176 -224 0
v -16 -256 0
v -32 -256 0
v -32 -240 0
v -16 -240 0
v -32 -256 0
v -48 -256 0
v -48 -240 0
v -32 -240 0
v -48 -256 0
v -64 -256 0
v -64 -240 0
v -48 -240 0
v -64 -256 0
v -80 -256 0
v -80 -240 0
v -64 -240 0
v -80 -256 0
v -96 -256 0
v -96 -240 0
v -80 -240 0
v -96 -256 0
v -112 -256 0
v -112 -240 0
v -96 -240 0
v -112 -256 0
v -128 -256 0
v -128 -240 0
v -112 -240 0
v 0 -272 0
v -16 -272 0
v -16 -256 0
v 0 -256 0
v -48 -272 0
v -64 -272 0
v -64 -256 0
v -48 -256 0
v -64 -272 0
v -80 -272 0
v -80 -256 0
v -64 -256 0
v -80 -272 0
v -96 -272 0
v -96 -256 0
v -80 -256 0
v -96 -272 0
v -112 -272 0
v -112 -256 0
v -96 -256 0
v -112 -272 0
v -128 -272 0
v -128 -256 0
v -112 -256 0
v 0 -288 0
v -16 -288 0
v -16 -272 0
v 0 -272 0
v -64 -288 0
v -80 -288 0
v -80 -272 0
v -64 -272 0
v -80 -288 0
v -96 -288 0
v -96 -272 0
v -80 -272 0

# Texture cooridinates (Count = 22)
vt 0 0.1176471
vt 0.03333334 0.1176471
vt 0.03333334 0.1764706
vt 0 0.1764706
vt 0.06666667 0.1176471
vt 0.06666667 0.1764706
vt 0.1 0.1176471
vt 0.1 0.1764706
vt 0 0
vt 0.03333334 0
vt 0.03333334 0.05882353
vt 0 0.05882353
vt 0.06666667 0.2352941
vt 0.1 0.2352941
vt 0.1 0.2941176
vt 0.06666667 0.2941176
vt 0.06666667 0.05882353
vt 0.03333334 0.2352941
vt 0.03333334 0.2941176
vt 0.06666667 0
vt 0.1 0.05882353
vt 0.1 0

# Normal
vn 0 0 -1

# Mesh description
g Foret_des_Espoirs_mesh_0002

# Faces
f 1/1/1 2/2/1 3/3/1 4/4/1
f 5/2/1 6/5/1 7/6/1 8/3/1
f 9/2/1 10/5/1 11/6/1 12/3/1
f 13/5/1 14/7/1 15/8/1 16/6/1
f 17/1/1 18/2/1 19/3/1 20/4/1
f 21/2/1 22/5/1 23/6/1 24/3/1
f 25/2/1 26/5/1 27/6/1 28/3/1
f 29/2/1 30/5/1 31/6/1 32/3/1
f 33/9/1 34/10/1 35/11/1 36/12/1
f 37/13/1 38/14/1 39/15/1 40/16/1
f 41/11/1 42/17/1 43/5/1 44/2/1
f 45/3/1 46/6/1 47/13/1 48/18/1
f 49/6/1 50/8/1 51/14/1 52/13/1
f 53/11/1 54/17/1 55/5/1 56/2/1
f 57/18/1 58/13/1 59/16/1 60/19/1
f 61/10/1 62/20/1 63/17/1 64/11/1
f 65/1/1 66/2/1 67/3/1 68/4/1
f 69/2/1 70/5/1 71/6/1 72/3/1
f 73/5/1 74/7/1 75/8/1 76/6/1
f 77/9/1 78/10/1 79/11/1 80/12/1
f 81/10/1 82/20/1 83/17/1 84/11/1
f 85/13/1 86/14/1 87/15/1 88/16/1
f 89/11/1 90/17/1 91/5/1 92/2/1
f 93/11/1 94/17/1 95/5/1 96/2/1
f 97/17/1 98/21/1 99/7/1 100/5/1
f 101/1/1 102/2/1 103/3/1 104/4/1
f 105/2/1 106/5/1 107/6/1 108/3/1
f 109/6/1 110/8/1 111/14/1 112/13/1
f 113/11/1 114/17/1 115/5/1 116/2/1
f 117/3/1 118/6/1 119/13/1 120/18/1
f 121/2/1 122/5/1 123/6/1 124/3/1
f 125/5/1 126/7/1 127/8/1 128/6/1
f 129/9/1 130/10/1 131/11/1 132/12/1
f 133/10/1 134/20/1 135/17/1 136/11/1
f 137/10/1 138/20/1 139/17/1 140/11/1
f 141/20/1 142/22/1 143/21/1 144/17/1
f 145/12/1 146/11/1 147/2/1 148/1/1
f 149/11/1 150/17/1 151/5/1 152/2/1
f 153/11/1 154/17/1 155/5/1 156/2/1
f 157/11/1 158/17/1 159/5/1 160/2/1
f 161/11/1 162/17/1 163/5/1 164/2/1
f 165/11/1 166/17/1 167/5/1 168/2/1
f 169/3/1 170/6/1 171/13/1 172/18/1
f 173/2/1 174/5/1 175/6/1 176/3/1
f 177/2/1 178/5/1 179/6/1 180/3/1
f 181/5/1 182/7/1 183/8/1 184/6/1
f 185/1/1 186/2/1 187/3/1 188/4/1
f 189/2/1 190/5/1 191/6/1 192/3/1
f 193/2/1 194/5/1 195/6/1 196/3/1
f 197/2/1 198/5/1 199/6/1 200/3/1
f 201/5/1 202/7/1 203/8/1 204/6/1
f 205/9/1 206/10/1 207/11/1 208/12/1
f 209/13/1 210/14/1 211/15/1 212/16/1
f 213/11/1 214/17/1 215/5/1 216/2/1
f 217/11/1 218/17/1 219/5/1 220/2/1
f 221/11/1 222/17/1 223/5/1 224/2/1
f 225/11/1 226/17/1 227/5/1 228/2/1
f 229/18/1 230/13/1 231/16/1 232/19/1
f 233/10/1 234/20/1 235/17/1 236/11/1
f 237/10/1 238/20/1 239/17/1 240/11/1
f 241/1/1 242/2/1 243/3/1 244/4/1
f 245/6/1 246/8/1 247/14/1 248/13/1
f 249/11/1 250/17/1 251/5/1 252/2/1
f 253/11/1 254/17/1 255/5/1 256/2/1
f 257/11/1 258/17/1 259/5/1 260/2/1
f 261/3/1 262/6/1 263/13/1 264/18/1
f 265/2/1 266/5/1 267/6/1 268/3/1
f 269/9/1 270/10/1 271/11/1 272/12/1
f 273/13/1 274/14/1 275/15/1 276/16/1
f 277/11/1 278/17/1 279/5/1 280/2/1
f 281/18/1 282/13/1 283/16/1 284/19/1
f 285/10/1 286/20/1 287/17/1 288/11/1
f 289/20/1 290/22/1 291/21/1 292/17/1
f 293/1/1 294/2/1 295/3/1 296/4/1
f 297/5/1 298/7/1 299/8/1 300/6/1
f 301/9/1 302/10/1 303/11/1 304/12/1
f 305/13/1 306/14/1 307/15/1 308/16/1
f 309/11/1 310/17/1 311/5/1 312/2/1
f 313/18/1 314/13/1 315/16/1 316/19/1
f 317/10/1 318/20/1 319/17/1 320/11/1
f 321/10/1 322/20/1 323/17/1 324/11/1
f 325/13/1 326/14/1 327/15/1 328/16/1
f 329/17/1 330/21/1 331/7/1 332/5/1
f 333/9/1 334/10/1 335/11/1 336/12/1
f 337/10/1 338/20/1 339/17/1 340/11/1
f 341/20/1 342/22/1 343/21/1 344/17/1
f 345/1/1 346/2/1 347/3/1 348/4/1
f 349/2/1 350/5/1 351/6/1 352/3/1
f 353/2/1 354/5/1 355/6/1 356/3/1
f 357/6/1 358/8/1 359/14/1 360/13/1
f 361/3/1 362/6/1 363/13/1 364/18/1
f 365/5/1 366/7/1 367/8/1 368/6/1
f 369/12/1 370/11/1 371/2/1 372/1/1
f 373/11/1 374/17/1 375/5/1 376/2/1
f 377/17/1 378/21/1 379/7/1 380/5/1
f 381/9/1 382/10/1 383/11/1 384/12/1
f 385/20/1 386/22/1 387/21/1 388/17/1
f 389/12/1 390/11/1 391/2/1 392/1/1
f 393/11/1 394/17/1 395/5/1 396/2/1
f 397/11/1 398/17/1 399/5/1 400/2/1
f 401/11/1 402/17/1 403/5/1 404/2/1
f 405/11/1 406/17/1 407/5/1 408/2/1
f 409/3/1 410/6/1 411/13/1 412/18/1
f 413/5/1 414/7/1 415/8/1 416/6/1
f 417/9/1 418/10/1 419/11/1 420/12/1
f 421/10/1 422/20/1 423/17/1 424/11/1
f 425/20/1 426/22/1 427/21/1 428/17/1
f 429/9/1 430/10/1 431/11/1 432/12/1
f 433/10/1 434/20/1 435/17/1 436/11/1
f 437/13/1 438/14/1 439/15/1 440/16/1
f 441/11/1 442/17/1 443/5/1 444/2/1
f 445/11/1 446/17/1 447/5/1 448/2/1
f 449/11/1 450/17/1 451/5/1 452/2/1
f 453/17/1 454/21/1 455/7/1 456/5/1
f 457/5/1 458/7/1 459/8/1 460/6/1
f 461/9/1 462/10/1 463/11/1 464/12/1
f 465/13/1 466/14/1 467/15/1 468/16/1
f 469/18/1 470/13/1 471/16/1 472/19/1
f 473/10/1 474/20/1 475/17/1 476/11/1
f 477/20/1 478/22/1 479/21/1 480/17/1
f 481/20/1 482/22/1 483/21/1 484/17/1
f 485/9/1 486/10/1 487/11/1 488/12/1
f 489/20/1 490/22/1 491/21/1 492/17/1

