# Tiled2Unity generated file. Do not modify by hand.
# Wavefront file for 'Foret_des_Espoirs_mesh_0009.obj'

# Vertices (Count = 204)
v -336 -80 0
v -352 -80 0
v -352 -64 0
v -336 -64 0
v -352 -80 0
v -368 -80 0
v -368 -64 0
v -352 -64 0
v -368 -80 0
v -384 -80 0
v -384 -64 0
v -368 -64 0
v -384 -80 0
v -400 -80 0
v -400 -64 0
v -384 -64 0
v -400 -80 0
v -416 -80 0
v -416 -64 0
v -400 -64 0
v -416 -80 0
v -432 -80 0
v -432 -64 0
v -416 -64 0
v -432 -80 0
v -448 -80 0
v -448 -64 0
v -432 -64 0
v -224 -96 0
v -240 -96 0
v -240 -80 0
v -224 -80 0
v -240 -96 0
v -256 -96 0
v -256 -80 0
v -240 -80 0
v -336 -96 0
v -352 -96 0
v -352 -80 0
v -336 -80 0
v -432 -96 0
v -448 -96 0
v -448 -80 0
v -432 -80 0
v -336 -112 0
v -352 -112 0
v -352 -96 0
v -336 -96 0
v -432 -112 0
v -448 -112 0
v -448 -96 0
v -432 -96 0
v -496 -112 0
v -512 -112 0
v -512 -96 0
v -496 -96 0
v -512 -112 0
v -528 -112 0
v -528 -96 0
v -512 -96 0
v -336 -128 0
v -352 -128 0
v -352 -112 0
v -336 -112 0
v -432 -128 0
v -448 -128 0
v -448 -112 0
v -432 -112 0
v -32 -144 0
v -48 -144 0
v -48 -128 0
v -32 -128 0
v -48 -144 0
v -64 -144 0
v -64 -128 0
v -48 -128 0
v -336 -144 0
v -352 -144 0
v -352 -128 0
v -336 -128 0
v -432 -144 0
v -448 -144 0
v -448 -128 0
v -432 -128 0
v -336 -160 0
v -352 -160 0
v -352 -144 0
v -336 -144 0
v -432 -160 0
v -448 -160 0
v -448 -144 0
v -432 -144 0
v -176 -176 0
v -192 -176 0
v -192 -160 0
v -176 -160 0
v -192 -176 0
v -208 -176 0
v -208 -160 0
v -192 -160 0
v -336 -176 0
v -352 -176 0
v -352 -160 0
v -336 -160 0
v -432 -176 0
v -448 -176 0
v -448 -160 0
v -432 -160 0
v -336 -192 0
v -352 -192 0
v -352 -176 0
v -336 -176 0
v -352 -192 0
v -368 -192 0
v -368 -176 0
v -352 -176 0
v -368 -192 0
v -384 -192 0
v -384 -176 0
v -368 -176 0
v -384 -192 0
v -400 -192 0
v -400 -176 0
v -384 -176 0
v -416 -192 0
v -432 -192 0
v -432 -176 0
v -416 -176 0
v -432 -192 0
v -448 -192 0
v -448 -176 0
v -432 -176 0
v -560 -272 0
v -576 -272 0
v -576 -256 0
v -560 -256 0
v -576 -272 0
v -592 -272 0
v -592 -256 0
v -576 -256 0
v -80 -288 0
v -96 -288 0
v -96 -272 0
v -80 -272 0
v -96 -288 0
v -112 -288 0
v -112 -272 0
v -96 -272 0
v -240 -288 0
v -256 -288 0
v -256 -272 0
v -240 -272 0
v -256 -288 0
v -272 -288 0
v -272 -272 0
v -256 -272 0
v -416 -384 0
v -432 -384 0
v -432 -368 0
v -416 -368 0
v -432 -384 0
v -448 -384 0
v -448 -368 0
v -432 -368 0
v -608 -384 0
v -624 -384 0
v -624 -368 0
v -608 -368 0
v -624 -384 0
v -640 -384 0
v -640 -368 0
v -624 -368 0
v -336 -448 0
v -352 -448 0
v -352 -432 0
v -336 -432 0
v -352 -448 0
v -368 -448 0
v -368 -432 0
v -352 -432 0
v -192 -464 0
v -208 -464 0
v -208 -448 0
v -192 -448 0
v -208 -464 0
v -224 -464 0
v -224 -448 0
v -208 -448 0
v -528 -464 0
v -544 -464 0
v -544 -448 0
v -528 -448 0
v -544 -464 0
v -560 -464 0
v -560 -448 0
v -544 -448 0
v 0 -480 0
v -16 -480 0
v -16 -464 0
v 0 -464 0
v -16 -480 0
v -32 -480 0
v -32 -464 0
v -16 -464 0

# Texture cooridinates (Count = 4)
vt 0 0
vt 1 0
vt 1 1
vt 0 1

# Normal
vn 0 0 -1

# Mesh description
g Foret_des_Espoirs_mesh_0009

# Faces
f 1/1/1 2/2/1 3/3/1 4/4/1
f 5/1/1 6/2/1 7/3/1 8/4/1
f 9/1/1 10/2/1 11/3/1 12/4/1
f 13/1/1 14/2/1 15/3/1 16/4/1
f 17/1/1 18/2/1 19/3/1 20/4/1
f 21/1/1 22/2/1 23/3/1 24/4/1
f 25/1/1 26/2/1 27/3/1 28/4/1
f 29/1/1 30/2/1 31/3/1 32/4/1
f 33/1/1 34/2/1 35/3/1 36/4/1
f 37/1/1 38/2/1 39/3/1 40/4/1
f 41/1/1 42/2/1 43/3/1 44/4/1
f 45/1/1 46/2/1 47/3/1 48/4/1
f 49/1/1 50/2/1 51/3/1 52/4/1
f 53/1/1 54/2/1 55/3/1 56/4/1
f 57/1/1 58/2/1 59/3/1 60/4/1
f 61/1/1 62/2/1 63/3/1 64/4/1
f 65/1/1 66/2/1 67/3/1 68/4/1
f 69/1/1 70/2/1 71/3/1 72/4/1
f 73/1/1 74/2/1 75/3/1 76/4/1
f 77/1/1 78/2/1 79/3/1 80/4/1
f 81/1/1 82/2/1 83/3/1 84/4/1
f 85/1/1 86/2/1 87/3/1 88/4/1
f 89/1/1 90/2/1 91/3/1 92/4/1
f 93/1/1 94/2/1 95/3/1 96/4/1
f 97/1/1 98/2/1 99/3/1 100/4/1
f 101/1/1 102/2/1 103/3/1 104/4/1
f 105/1/1 106/2/1 107/3/1 108/4/1
f 109/1/1 110/2/1 111/3/1 112/4/1
f 113/1/1 114/2/1 115/3/1 116/4/1
f 117/1/1 118/2/1 119/3/1 120/4/1
f 121/1/1 122/2/1 123/3/1 124/4/1
f 125/1/1 126/2/1 127/3/1 128/4/1
f 129/1/1 130/2/1 131/3/1 132/4/1
f 133/1/1 134/2/1 135/3/1 136/4/1
f 137/1/1 138/2/1 139/3/1 140/4/1
f 141/1/1 142/2/1 143/3/1 144/4/1
f 145/1/1 146/2/1 147/3/1 148/4/1
f 149/1/1 150/2/1 151/3/1 152/4/1
f 153/1/1 154/2/1 155/3/1 156/4/1
f 157/1/1 158/2/1 159/3/1 160/4/1
f 161/1/1 162/2/1 163/3/1 164/4/1
f 165/1/1 166/2/1 167/3/1 168/4/1
f 169/1/1 170/2/1 171/3/1 172/4/1
f 173/1/1 174/2/1 175/3/1 176/4/1
f 177/1/1 178/2/1 179/3/1 180/4/1
f 181/1/1 182/2/1 183/3/1 184/4/1
f 185/1/1 186/2/1 187/3/1 188/4/1
f 189/1/1 190/2/1 191/3/1 192/4/1
f 193/1/1 194/2/1 195/3/1 196/4/1
f 197/1/1 198/2/1 199/3/1 200/4/1
f 201/1/1 202/2/1 203/3/1 204/4/1

