# Tiled2Unity generated file. Do not modify by hand.
# Wavefront file for 'Foret_des_Espoirs_mesh_0008.obj'

# Vertices (Count = 648)
v -208 -32 0
v -224 -32 0
v -224 -16 0
v -208 -16 0
v -224 -32 0
v -240 -32 0
v -240 -16 0
v -224 -16 0
v -240 -32 0
v -256 -32 0
v -256 -16 0
v -240 -16 0
v -256 -32 0
v -272 -32 0
v -272 -16 0
v -256 -16 0
v -208 -48 0
v -224 -48 0
v -224 -32 0
v -208 -32 0
v -224 -48 0
v -240 -48 0
v -240 -32 0
v -224 -32 0
v -240 -48 0
v -256 -48 0
v -256 -32 0
v -240 -32 0
v -256 -48 0
v -272 -48 0
v -272 -32 0
v -256 -32 0
v -480 -48 0
v -496 -48 0
v -496 -32 0
v -480 -32 0
v -496 -48 0
v -512 -48 0
v -512 -32 0
v -496 -32 0
v -512 -48 0
v -528 -48 0
v -528 -32 0
v -512 -32 0
v -528 -48 0
v -544 -48 0
v -544 -32 0
v -528 -32 0
v -208 -64 0
v -224 -64 0
v -224 -48 0
v -208 -48 0
v -224 -64 0
v -240 -64 0
v -240 -48 0
v -224 -48 0
v -240 -64 0
v -256 -64 0
v -256 -48 0
v -240 -48 0
v -256 -64 0
v -272 -64 0
v -272 -48 0
v -256 -48 0
v -480 -64 0
v -496 -64 0
v -496 -48 0
v -480 -48 0
v -496 -64 0
v -512 -64 0
v -512 -48 0
v -496 -48 0
v -512 -64 0
v -528 -64 0
v -528 -48 0
v -512 -48 0
v -528 -64 0
v -544 -64 0
v -544 -48 0
v -528 -48 0
v -16 -80 0
v -32 -80 0
v -32 -64 0
v -16 -64 0
v -32 -80 0
v -48 -80 0
v -48 -64 0
v -32 -64 0
v -48 -80 0
v -64 -80 0
v -64 -64 0
v -48 -64 0
v -64 -80 0
v -80 -80 0
v -80 -64 0
v -64 -64 0
v -208 -80 0
v -224 -80 0
v -224 -64 0
v -208 -64 0
v -224 -80 0
v -240 -80 0
v -240 -64 0
v -224 -64 0
v -240 -80 0
v -256 -80 0
v -256 -64 0
v -240 -64 0
v -256 -80 0
v -272 -80 0
v -272 -64 0
v -256 -64 0
v -480 -80 0
v -496 -80 0
v -496 -64 0
v -480 -64 0
v -496 -80 0
v -512 -80 0
v -512 -64 0
v -496 -64 0
v -512 -80 0
v -528 -80 0
v -528 -64 0
v -512 -64 0
v -528 -80 0
v -544 -80 0
v -544 -64 0
v -528 -64 0
v -16 -96 0
v -32 -96 0
v -32 -80 0
v -16 -80 0
v -32 -96 0
v -48 -96 0
v -48 -80 0
v -32 -80 0
v -48 -96 0
v -64 -96 0
v -64 -80 0
v -48 -80 0
v -64 -96 0
v -80 -96 0
v -80 -80 0
v -64 -80 0
v -480 -96 0
v -496 -96 0
v -496 -80 0
v -480 -80 0
v -496 -96 0
v -512 -96 0
v -512 -80 0
v -496 -80 0
v -512 -96 0
v -528 -96 0
v -528 -80 0
v -512 -80 0
v -528 -96 0
v -544 -96 0
v -544 -80 0
v -528 -80 0
v -16 -112 0
v -32 -112 0
v -32 -96 0
v -16 -96 0
v -32 -112 0
v -48 -112 0
v -48 -96 0
v -32 -96 0
v -48 -112 0
v -64 -112 0
v -64 -96 0
v -48 -96 0
v -64 -112 0
v -80 -112 0
v -80 -96 0
v -64 -96 0
v -16 -128 0
v -32 -128 0
v -32 -112 0
v -16 -112 0
v -32 -128 0
v -48 -128 0
v -48 -112 0
v -32 -112 0
v -48 -128 0
v -64 -128 0
v -64 -112 0
v -48 -112 0
v -64 -128 0
v -80 -128 0
v -80 -112 0
v -64 -112 0
v -176 -160 0
v -192 -160 0
v -192 -144 0
v -176 -144 0
v -192 -160 0
v -208 -160 0
v -208 -144 0
v -192 -144 0
v -544 -208 0
v -560 -208 0
v -560 -192 0
v -544 -192 0
v -560 -208 0
v -576 -208 0
v -576 -192 0
v -560 -192 0
v -576 -208 0
v -592 -208 0
v -592 -192 0
v -576 -192 0
v -592 -208 0
v -608 -208 0
v -608 -192 0
v -592 -192 0
v -64 -224 0
v -80 -224 0
v -80 -208 0
v -64 -208 0
v -80 -224 0
v -96 -224 0
v -96 -208 0
v -80 -208 0
v -96 -224 0
v -112 -224 0
v -112 -208 0
v -96 -208 0
v -112 -224 0
v -128 -224 0
v -128 -208 0
v -112 -208 0
v -224 -224 0
v -240 -224 0
v -240 -208 0
v -224 -208 0
v -240 -224 0
v -256 -224 0
v -256 -208 0
v -240 -208 0
v -256 -224 0
v -272 -224 0
v -272 -208 0
v -256 -208 0
v -272 -224 0
v -288 -224 0
v -288 -208 0
v -272 -208 0
v -544 -224 0
v -560 -224 0
v -560 -208 0
v -544 -208 0
v -560 -224 0
v -576 -224 0
v -576 -208 0
v -560 -208 0
v -576 -224 0
v -592 -224 0
v -592 -208 0
v -576 -208 0
v -592 -224 0
v -608 -224 0
v -608 -208 0
v -592 -208 0
v -64 -240 0
v -80 -240 0
v -80 -224 0
v -64 -224 0
v -80 -240 0
v -96 -240 0
v -96 -224 0
v -80 -224 0
v -96 -240 0
v -112 -240 0
v -112 -224 0
v -96 -224 0
v -112 -240 0
v -128 -240 0
v -128 -224 0
v -112 -224 0
v -224 -240 0
v -240 -240 0
v -240 -224 0
v -224 -224 0
v -240 -240 0
v -256 -240 0
v -256 -224 0
v -240 -224 0
v -256 -240 0
v -272 -240 0
v -272 -224 0
v -256 -224 0
v -272 -240 0
v -288 -240 0
v -288 -224 0
v -272 -224 0
v -544 -240 0
v -560 -240 0
v -560 -224 0
v -544 -224 0
v -560 -240 0
v -576 -240 0
v -576 -224 0
v -560 -224 0
v -576 -240 0
v -592 -240 0
v -592 -224 0
v -576 -224 0
v -592 -240 0
v -608 -240 0
v -608 -224 0
v -592 -224 0
v -64 -256 0
v -80 -256 0
v -80 -240 0
v -64 -240 0
v -80 -256 0
v -96 -256 0
v -96 -240 0
v -80 -240 0
v -96 -256 0
v -112 -256 0
v -112 -240 0
v -96 -240 0
v -112 -256 0
v -128 -256 0
v -128 -240 0
v -112 -240 0
v -224 -256 0
v -240 -256 0
v -240 -240 0
v -224 -240 0
v -240 -256 0
v -256 -256 0
v -256 -240 0
v -240 -240 0
v -256 -256 0
v -272 -256 0
v -272 -240 0
v -256 -240 0
v -272 -256 0
v -288 -256 0
v -288 -240 0
v -272 -240 0
v -544 -256 0
v -560 -256 0
v -560 -240 0
v -544 -240 0
v -560 -256 0
v -576 -256 0
v -576 -240 0
v -560 -240 0
v -576 -256 0
v -592 -256 0
v -592 -240 0
v -576 -240 0
v -592 -256 0
v -608 -256 0
v -608 -240 0
v -592 -240 0
v -64 -272 0
v -80 -272 0
v -80 -256 0
v -64 -256 0
v -80 -272 0
v -96 -272 0
v -96 -256 0
v -80 -256 0
v -96 -272 0
v -112 -272 0
v -112 -256 0
v -96 -256 0
v -112 -272 0
v -128 -272 0
v -128 -256 0
v -112 -256 0
v -224 -272 0
v -240 -272 0
v -240 -256 0
v -224 -256 0
v -240 -272 0
v -256 -272 0
v -256 -256 0
v -240 -256 0
v -256 -272 0
v -272 -272 0
v -272 -256 0
v -256 -256 0
v -272 -272 0
v -288 -272 0
v -288 -256 0
v -272 -256 0
v -400 -320 0
v -416 -320 0
v -416 -304 0
v -400 -304 0
v -416 -320 0
v -432 -320 0
v -432 -304 0
v -416 -304 0
v -432 -320 0
v -448 -320 0
v -448 -304 0
v -432 -304 0
v -448 -320 0
v -464 -320 0
v -464 -304 0
v -448 -304 0
v -400 -336 0
v -416 -336 0
v -416 -320 0
v -400 -320 0
v -416 -336 0
v -432 -336 0
v -432 -320 0
v -416 -320 0
v -432 -336 0
v -448 -336 0
v -448 -320 0
v -432 -320 0
v -448 -336 0
v -464 -336 0
v -464 -320 0
v -448 -320 0
v -400 -352 0
v -416 -352 0
v -416 -336 0
v -400 -336 0
v -416 -352 0
v -432 -352 0
v -432 -336 0
v -416 -336 0
v -432 -352 0
v -448 -352 0
v -448 -336 0
v -432 -336 0
v -448 -352 0
v -464 -352 0
v -464 -336 0
v -448 -336 0
v -400 -368 0
v -416 -368 0
v -416 -352 0
v -400 -352 0
v -416 -368 0
v -432 -368 0
v -432 -352 0
v -416 -352 0
v -432 -368 0
v -448 -368 0
v -448 -352 0
v -432 -352 0
v -448 -368 0
v -464 -368 0
v -464 -352 0
v -448 -352 0
v -608 -368 0
v -624 -368 0
v -624 -352 0
v -608 -352 0
v -624 -368 0
v -640 -368 0
v -640 -352 0
v -624 -352 0
v -176 -400 0
v -192 -400 0
v -192 -384 0
v -176 -384 0
v -192 -400 0
v -208 -400 0
v -208 -384 0
v -192 -384 0
v -208 -400 0
v -224 -400 0
v -224 -384 0
v -208 -384 0
v -224 -400 0
v -240 -400 0
v -240 -384 0
v -224 -384 0
v -512 -400 0
v -528 -400 0
v -528 -384 0
v -512 -384 0
v -528 -400 0
v -544 -400 0
v -544 -384 0
v -528 -384 0
v -544 -400 0
v -560 -400 0
v -560 -384 0
v -544 -384 0
v -560 -400 0
v -576 -400 0
v -576 -384 0
v -560 -384 0
v 0 -416 0
v -16 -416 0
v -16 -400 0
v 0 -400 0
v -16 -416 0
v -32 -416 0
v -32 -400 0
v -16 -400 0
v -32 -416 0
v -48 -416 0
v -48 -400 0
v -32 -400 0
v -176 -416 0
v -192 -416 0
v -192 -400 0
v -176 -400 0
v -192 -416 0
v -208 -416 0
v -208 -400 0
v -192 -400 0
v -208 -416 0
v -224 -416 0
v -224 -400 0
v -208 -400 0
v -224 -416 0
v -240 -416 0
v -240 -400 0
v -224 -400 0
v -512 -416 0
v -528 -416 0
v -528 -400 0
v -512 -400 0
v -528 -416 0
v -544 -416 0
v -544 -400 0
v -528 -400 0
v -544 -416 0
v -560 -416 0
v -560 -400 0
v -544 -400 0
v -560 -416 0
v -576 -416 0
v -576 -400 0
v -560 -400 0
v 0 -432 0
v -16 -432 0
v -16 -416 0
v 0 -416 0
v -16 -432 0
v -32 -432 0
v -32 -416 0
v -16 -416 0
v -32 -432 0
v -48 -432 0
v -48 -416 0
v -32 -416 0
v -176 -432 0
v -192 -432 0
v -192 -416 0
v -176 -416 0
v -192 -432 0
v -208 -432 0
v -208 -416 0
v -192 -416 0
v -208 -432 0
v -224 -432 0
v -224 -416 0
v -208 -416 0
v -224 -432 0
v -240 -432 0
v -240 -416 0
v -224 -416 0
v -336 -432 0
v -352 -432 0
v -352 -416 0
v -336 -416 0
v -352 -432 0
v -368 -432 0
v -368 -416 0
v -352 -416 0
v -512 -432 0
v -528 -432 0
v -528 -416 0
v -512 -416 0
v -528 -432 0
v -544 -432 0
v -544 -416 0
v -528 -416 0
v -544 -432 0
v -560 -432 0
v -560 -416 0
v -544 -416 0
v -560 -432 0
v -576 -432 0
v -576 -416 0
v -560 -416 0
v 0 -448 0
v -16 -448 0
v -16 -432 0
v 0 -432 0
v -16 -448 0
v -32 -448 0
v -32 -432 0
v -16 -432 0
v -32 -448 0
v -48 -448 0
v -48 -432 0
v -32 -432 0
v -176 -448 0
v -192 -448 0
v -192 -432 0
v -176 -432 0
v -192 -448 0
v -208 -448 0
v -208 -432 0
v -192 -432 0
v -208 -448 0
v -224 -448 0
v -224 -432 0
v -208 -432 0
v -224 -448 0
v -240 -448 0
v -240 -432 0
v -224 -432 0
v -512 -448 0
v -528 -448 0
v -528 -432 0
v -512 -432 0
v -528 -448 0
v -544 -448 0
v -544 -432 0
v -528 -432 0
v -544 -448 0
v -560 -448 0
v -560 -432 0
v -544 -432 0
v -560 -448 0
v -576 -448 0
v -576 -432 0
v -560 -432 0
v 0 -464 0
v -16 -464 0
v -16 -448 0
v 0 -448 0
v -16 -464 0
v -32 -464 0
v -32 -448 0
v -16 -448 0
v -32 -464 0
v -48 -464 0
v -48 -448 0
v -32 -448 0

# Texture cooridinates (Count = 29)
vt 0.8666667 0.2941176
vt 0.9 0.2941176
vt 0.9 0.3529412
vt 0.8666667 0.3529412
vt 0.9333333 0.2941176
vt 0.9333333 0.3529412
vt 0.9666666 0.2941176
vt 0.9666666 0.3529412
vt 1 0.2941176
vt 1 0.3529412
vt 0.8666667 0.2352941
vt 0.9 0.2352941
vt 0.9333333 0.2352941
vt 0.9666666 0.2352941
vt 1 0.2352941
vt 0.8666667 0.1764706
vt 0.9 0.1764706
vt 0.9333333 0.1764706
vt 0.9666666 0.1764706
vt 1 0.1764706
vt 0.8666667 0.1176471
vt 0.9 0.1176471
vt 0.9333333 0.1176471
vt 0.9666666 0.1176471
vt 1 0.1176471
vt 0.8 0.2352941
vt 0.8333333 0.2352941
vt 0.8333333 0.2941176
vt 0.8 0.2941176

# Normal
vn 0 0 -1

# Mesh description
g Foret_des_Espoirs_mesh_0008

# Faces
f 1/1/1 2/2/1 3/3/1 4/4/1
f 5/2/1 6/5/1 7/6/1 8/3/1
f 9/5/1 10/7/1 11/8/1 12/6/1
f 13/7/1 14/9/1 15/10/1 16/8/1
f 17/11/1 18/12/1 19/2/1 20/1/1
f 21/12/1 22/13/1 23/5/1 24/2/1
f 25/13/1 26/14/1 27/7/1 28/5/1
f 29/14/1 30/15/1 31/9/1 32/7/1
f 33/1/1 34/2/1 35/3/1 36/4/1
f 37/2/1 38/5/1 39/6/1 40/3/1
f 41/5/1 42/7/1 43/8/1 44/6/1
f 45/7/1 46/9/1 47/10/1 48/8/1
f 49/16/1 50/17/1 51/12/1 52/11/1
f 53/17/1 54/18/1 55/13/1 56/12/1
f 57/18/1 58/19/1 59/14/1 60/13/1
f 61/19/1 62/20/1 63/15/1 64/14/1
f 65/11/1 66/12/1 67/2/1 68/1/1
f 69/12/1 70/13/1 71/5/1 72/2/1
f 73/13/1 74/14/1 75/7/1 76/5/1
f 77/14/1 78/15/1 79/9/1 80/7/1
f 81/1/1 82/2/1 83/3/1 84/4/1
f 85/2/1 86/5/1 87/6/1 88/3/1
f 89/5/1 90/7/1 91/8/1 92/6/1
f 93/7/1 94/9/1 95/10/1 96/8/1
f 97/21/1 98/22/1 99/17/1 100/16/1
f 101/22/1 102/23/1 103/18/1 104/17/1
f 105/23/1 106/24/1 107/19/1 108/18/1
f 109/24/1 110/25/1 111/20/1 112/19/1
f 113/16/1 114/17/1 115/12/1 116/11/1
f 117/17/1 118/18/1 119/13/1 120/12/1
f 121/18/1 122/19/1 123/14/1 124/13/1
f 125/19/1 126/20/1 127/15/1 128/14/1
f 129/11/1 130/12/1 131/2/1 132/1/1
f 133/12/1 134/13/1 135/5/1 136/2/1
f 137/13/1 138/14/1 139/7/1 140/5/1
f 141/14/1 142/15/1 143/9/1 144/7/1
f 145/21/1 146/22/1 147/17/1 148/16/1
f 149/22/1 150/23/1 151/18/1 152/17/1
f 153/23/1 154/24/1 155/19/1 156/18/1
f 157/24/1 158/25/1 159/20/1 160/19/1
f 161/16/1 162/17/1 163/12/1 164/11/1
f 165/17/1 166/18/1 167/13/1 168/12/1
f 169/18/1 170/19/1 171/14/1 172/13/1
f 173/19/1 174/20/1 175/15/1 176/14/1
f 177/21/1 178/22/1 179/17/1 180/16/1
f 181/22/1 182/23/1 183/18/1 184/17/1
f 185/23/1 186/24/1 187/19/1 188/18/1
f 189/24/1 190/25/1 191/20/1 192/19/1
f 193/26/1 194/27/1 195/28/1 196/29/1
f 197/27/1 198/11/1 199/1/1 200/28/1
f 201/1/1 202/2/1 203/3/1 204/4/1
f 205/2/1 206/5/1 207/6/1 208/3/1
f 209/5/1 210/7/1 211/8/1 212/6/1
f 213/7/1 214/9/1 215/10/1 216/8/1
f 217/1/1 218/2/1 219/3/1 220/4/1
f 221/2/1 222/5/1 223/6/1 224/3/1
f 225/5/1 226/7/1 227/8/1 228/6/1
f 229/7/1 230/9/1 231/10/1 232/8/1
f 233/1/1 234/2/1 235/3/1 236/4/1
f 237/2/1 238/5/1 239/6/1 240/3/1
f 241/5/1 242/7/1 243/8/1 244/6/1
f 245/7/1 246/9/1 247/10/1 248/8/1
f 249/11/1 250/12/1 251/2/1 252/1/1
f 253/12/1 254/13/1 255/5/1 256/2/1
f 257/13/1 258/14/1 259/7/1 260/5/1
f 261/14/1 262/15/1 263/9/1 264/7/1
f 265/11/1 266/12/1 267/2/1 268/1/1
f 269/12/1 270/13/1 271/5/1 272/2/1
f 273/13/1 274/14/1 275/7/1 276/5/1
f 277/14/1 278/15/1 279/9/1 280/7/1
f 281/11/1 282/12/1 283/2/1 284/1/1
f 285/12/1 286/13/1 287/5/1 288/2/1
f 289/13/1 290/14/1 291/7/1 292/5/1
f 293/14/1 294/15/1 295/9/1 296/7/1
f 297/16/1 298/17/1 299/12/1 300/11/1
f 301/17/1 302/18/1 303/13/1 304/12/1
f 305/18/1 306/19/1 307/14/1 308/13/1
f 309/19/1 310/20/1 311/15/1 312/14/1
f 313/16/1 314/17/1 315/12/1 316/11/1
f 317/17/1 318/18/1 319/13/1 320/12/1
f 321/18/1 322/19/1 323/14/1 324/13/1
f 325/19/1 326/20/1 327/15/1 328/14/1
f 329/16/1 330/17/1 331/12/1 332/11/1
f 333/17/1 334/18/1 335/13/1 336/12/1
f 337/18/1 338/19/1 339/14/1 340/13/1
f 341/19/1 342/20/1 343/15/1 344/14/1
f 345/21/1 346/22/1 347/17/1 348/16/1
f 349/22/1 350/23/1 351/18/1 352/17/1
f 353/23/1 354/24/1 355/19/1 356/18/1
f 357/24/1 358/25/1 359/20/1 360/19/1
f 361/21/1 362/22/1 363/17/1 364/16/1
f 365/22/1 366/23/1 367/18/1 368/17/1
f 369/23/1 370/24/1 371/19/1 372/18/1
f 373/24/1 374/25/1 375/20/1 376/19/1
f 377/21/1 378/22/1 379/17/1 380/16/1
f 381/22/1 382/23/1 383/18/1 384/17/1
f 385/23/1 386/24/1 387/19/1 388/18/1
f 389/24/1 390/25/1 391/20/1 392/19/1
f 393/1/1 394/2/1 395/3/1 396/4/1
f 397/2/1 398/5/1 399/6/1 400/3/1
f 401/5/1 402/7/1 403/8/1 404/6/1
f 405/7/1 406/9/1 407/10/1 408/8/1
f 409/11/1 410/12/1 411/2/1 412/1/1
f 413/12/1 414/13/1 415/5/1 416/2/1
f 417/13/1 418/14/1 419/7/1 420/5/1
f 421/14/1 422/15/1 423/9/1 424/7/1
f 425/16/1 426/17/1 427/12/1 428/11/1
f 429/17/1 430/18/1 431/13/1 432/12/1
f 433/18/1 434/19/1 435/14/1 436/13/1
f 437/19/1 438/20/1 439/15/1 440/14/1
f 441/21/1 442/22/1 443/17/1 444/16/1
f 445/22/1 446/23/1 447/18/1 448/17/1
f 449/23/1 450/24/1 451/19/1 452/18/1
f 453/24/1 454/25/1 455/20/1 456/19/1
f 457/26/1 458/27/1 459/28/1 460/29/1
f 461/27/1 462/11/1 463/1/1 464/28/1
f 465/1/1 466/2/1 467/3/1 468/4/1
f 469/2/1 470/5/1 471/6/1 472/3/1
f 473/5/1 474/7/1 475/8/1 476/6/1
f 477/7/1 478/9/1 479/10/1 480/8/1
f 481/1/1 482/2/1 483/3/1 484/4/1
f 485/2/1 486/5/1 487/6/1 488/3/1
f 489/5/1 490/7/1 491/8/1 492/6/1
f 493/7/1 494/9/1 495/10/1 496/8/1
f 497/2/1 498/5/1 499/6/1 500/3/1
f 501/5/1 502/7/1 503/8/1 504/6/1
f 505/7/1 506/9/1 507/10/1 508/8/1
f 509/11/1 510/12/1 511/2/1 512/1/1
f 513/12/1 514/13/1 515/5/1 516/2/1
f 517/13/1 518/14/1 519/7/1 520/5/1
f 521/14/1 522/15/1 523/9/1 524/7/1
f 525/11/1 526/12/1 527/2/1 528/1/1
f 529/12/1 530/13/1 531/5/1 532/2/1
f 533/13/1 534/14/1 535/7/1 536/5/1
f 537/14/1 538/15/1 539/9/1 540/7/1
f 541/12/1 542/13/1 543/5/1 544/2/1
f 545/13/1 546/14/1 547/7/1 548/5/1
f 549/14/1 550/15/1 551/9/1 552/7/1
f 553/16/1 554/17/1 555/12/1 556/11/1
f 557/17/1 558/18/1 559/13/1 560/12/1
f 561/18/1 562/19/1 563/14/1 564/13/1
f 565/19/1 566/20/1 567/15/1 568/14/1
f 569/26/1 570/27/1 571/28/1 572/29/1
f 573/27/1 574/11/1 575/1/1 576/28/1
f 577/16/1 578/17/1 579/12/1 580/11/1
f 581/17/1 582/18/1 583/13/1 584/12/1
f 585/18/1 586/19/1 587/14/1 588/13/1
f 589/19/1 590/20/1 591/15/1 592/14/1
f 593/17/1 594/18/1 595/13/1 596/12/1
f 597/18/1 598/19/1 599/14/1 600/13/1
f 601/19/1 602/20/1 603/15/1 604/14/1
f 605/21/1 606/22/1 607/17/1 608/16/1
f 609/22/1 610/23/1 611/18/1 612/17/1
f 613/23/1 614/24/1 615/19/1 616/18/1
f 617/24/1 618/25/1 619/20/1 620/19/1
f 621/21/1 622/22/1 623/17/1 624/16/1
f 625/22/1 626/23/1 627/18/1 628/17/1
f 629/23/1 630/24/1 631/19/1 632/18/1
f 633/24/1 634/25/1 635/20/1 636/19/1
f 637/22/1 638/23/1 639/18/1 640/17/1
f 641/23/1 642/24/1 643/19/1 644/18/1
f 645/24/1 646/25/1 647/20/1 648/19/1

