# Tiled2Unity generated file. Do not modify by hand.
# Wavefront file for 'Foret_des_Espoirs_mesh_0004.obj'

# Vertices (Count = 640)
v -384 -16 0
v -400 -16 0
v -400 0 0
v -384 0 0
v -208 -32 0
v -224 -32 0
v -224 -16 0
v -208 -16 0
v -224 -32 0
v -240 -32 0
v -240 -16 0
v -224 -16 0
v -240 -32 0
v -256 -32 0
v -256 -16 0
v -240 -16 0
v -256 -32 0
v -272 -32 0
v -272 -16 0
v -256 -16 0
v -368 -32 0
v -384 -32 0
v -384 -16 0
v -368 -16 0
v -384 -32 0
v -400 -32 0
v -400 -16 0
v -384 -16 0
v -400 -32 0
v -416 -32 0
v -416 -16 0
v -400 -16 0
v -208 -48 0
v -224 -48 0
v -224 -32 0
v -208 -32 0
v -224 -48 0
v -240 -48 0
v -240 -32 0
v -224 -32 0
v -240 -48 0
v -256 -48 0
v -256 -32 0
v -240 -32 0
v -256 -48 0
v -272 -48 0
v -272 -32 0
v -256 -32 0
v -352 -48 0
v -368 -48 0
v -368 -32 0
v -352 -32 0
v -368 -48 0
v -384 -48 0
v -384 -32 0
v -368 -32 0
v -384 -48 0
v -400 -48 0
v -400 -32 0
v -384 -32 0
v -400 -48 0
v -416 -48 0
v -416 -32 0
v -400 -32 0
v -416 -48 0
v -432 -48 0
v -432 -32 0
v -416 -32 0
v -480 -48 0
v -496 -48 0
v -496 -32 0
v -480 -32 0
v -496 -48 0
v -512 -48 0
v -512 -32 0
v -496 -32 0
v -512 -48 0
v -528 -48 0
v -528 -32 0
v -512 -32 0
v -528 -48 0
v -544 -48 0
v -544 -32 0
v -528 -32 0
v -208 -64 0
v -224 -64 0
v -224 -48 0
v -208 -48 0
v -224 -64 0
v -240 -64 0
v -240 -48 0
v -224 -48 0
v -240 -64 0
v -256 -64 0
v -256 -48 0
v -240 -48 0
v -256 -64 0
v -272 -64 0
v -272 -48 0
v -256 -48 0
v -336 -64 0
v -352 -64 0
v -352 -48 0
v -336 -48 0
v -352 -64 0
v -368 -64 0
v -368 -48 0
v -352 -48 0
v -368 -64 0
v -384 -64 0
v -384 -48 0
v -368 -48 0
v -384 -64 0
v -400 -64 0
v -400 -48 0
v -384 -48 0
v -400 -64 0
v -416 -64 0
v -416 -48 0
v -400 -48 0
v -416 -64 0
v -432 -64 0
v -432 -48 0
v -416 -48 0
v -432 -64 0
v -448 -64 0
v -448 -48 0
v -432 -48 0
v -480 -64 0
v -496 -64 0
v -496 -48 0
v -480 -48 0
v -496 -64 0
v -512 -64 0
v -512 -48 0
v -496 -48 0
v -512 -64 0
v -528 -64 0
v -528 -48 0
v -512 -48 0
v -528 -64 0
v -544 -64 0
v -544 -48 0
v -528 -48 0
v -16 -80 0
v -32 -80 0
v -32 -64 0
v -16 -64 0
v -32 -80 0
v -48 -80 0
v -48 -64 0
v -32 -64 0
v -48 -80 0
v -64 -80 0
v -64 -64 0
v -48 -64 0
v -64 -80 0
v -80 -80 0
v -80 -64 0
v -64 -64 0
v -208 -80 0
v -224 -80 0
v -224 -64 0
v -208 -64 0
v -224 -80 0
v -240 -80 0
v -240 -64 0
v -224 -64 0
v -240 -80 0
v -256 -80 0
v -256 -64 0
v -240 -64 0
v -256 -80 0
v -272 -80 0
v -272 -64 0
v -256 -64 0
v -480 -80 0
v -496 -80 0
v -496 -64 0
v -480 -64 0
v -496 -80 0
v -512 -80 0
v -512 -64 0
v -496 -64 0
v -512 -80 0
v -528 -80 0
v -528 -64 0
v -512 -64 0
v -528 -80 0
v -544 -80 0
v -544 -64 0
v -528 -64 0
v -16 -96 0
v -32 -96 0
v -32 -80 0
v -16 -80 0
v -32 -96 0
v -48 -96 0
v -48 -80 0
v -32 -80 0
v -48 -96 0
v -64 -96 0
v -64 -80 0
v -48 -80 0
v -64 -96 0
v -80 -96 0
v -80 -80 0
v -64 -80 0
v -480 -96 0
v -496 -96 0
v -496 -80 0
v -480 -80 0
v -496 -96 0
v -512 -96 0
v -512 -80 0
v -496 -80 0
v -512 -96 0
v -528 -96 0
v -528 -80 0
v -512 -80 0
v -528 -96 0
v -544 -96 0
v -544 -80 0
v -528 -80 0
v -16 -112 0
v -32 -112 0
v -32 -96 0
v -16 -96 0
v -32 -112 0
v -48 -112 0
v -48 -96 0
v -32 -96 0
v -48 -112 0
v -64 -112 0
v -64 -96 0
v -48 -96 0
v -64 -112 0
v -80 -112 0
v -80 -96 0
v -64 -96 0
v -16 -128 0
v -32 -128 0
v -32 -112 0
v -16 -112 0
v -32 -128 0
v -48 -128 0
v -48 -112 0
v -32 -112 0
v -48 -128 0
v -64 -128 0
v -64 -112 0
v -48 -112 0
v -64 -128 0
v -80 -128 0
v -80 -112 0
v -64 -112 0
v -176 -160 0
v -192 -160 0
v -192 -144 0
v -176 -144 0
v -192 -160 0
v -208 -160 0
v -208 -144 0
v -192 -144 0
v -64 -224 0
v -80 -224 0
v -80 -208 0
v -64 -208 0
v -80 -224 0
v -96 -224 0
v -96 -208 0
v -80 -208 0
v -96 -224 0
v -112 -224 0
v -112 -208 0
v -96 -208 0
v -112 -224 0
v -128 -224 0
v -128 -208 0
v -112 -208 0
v -64 -240 0
v -80 -240 0
v -80 -224 0
v -64 -224 0
v -80 -240 0
v -96 -240 0
v -96 -224 0
v -80 -224 0
v -96 -240 0
v -112 -240 0
v -112 -224 0
v -96 -224 0
v -112 -240 0
v -128 -240 0
v -128 -224 0
v -112 -224 0
v -64 -256 0
v -80 -256 0
v -80 -240 0
v -64 -240 0
v -80 -256 0
v -96 -256 0
v -96 -240 0
v -80 -240 0
v -96 -256 0
v -112 -256 0
v -112 -240 0
v -96 -240 0
v -112 -256 0
v -128 -256 0
v -128 -240 0
v -112 -240 0
v -560 -256 0
v -576 -256 0
v -576 -240 0
v -560 -240 0
v -576 -256 0
v -592 -256 0
v -592 -240 0
v -576 -240 0
v -64 -272 0
v -80 -272 0
v -80 -256 0
v -64 -256 0
v -80 -272 0
v -96 -272 0
v -96 -256 0
v -80 -256 0
v -96 -272 0
v -112 -272 0
v -112 -256 0
v -96 -256 0
v -112 -272 0
v -128 -272 0
v -128 -256 0
v -112 -256 0
v -240 -272 0
v -256 -272 0
v -256 -256 0
v -240 -256 0
v -256 -272 0
v -272 -272 0
v -272 -256 0
v -256 -256 0
v -400 -320 0
v -416 -320 0
v -416 -304 0
v -400 -304 0
v -416 -320 0
v -432 -320 0
v -432 -304 0
v -416 -304 0
v -432 -320 0
v -448 -320 0
v -448 -304 0
v -432 -304 0
v -448 -320 0
v -464 -320 0
v -464 -304 0
v -448 -304 0
v -592 -320 0
v -608 -320 0
v -608 -304 0
v -592 -304 0
v -608 -320 0
v -624 -320 0
v -624 -304 0
v -608 -304 0
v -624 -320 0
v -640 -320 0
v -640 -304 0
v -624 -304 0
v -400 -336 0
v -416 -336 0
v -416 -320 0
v -400 -320 0
v -416 -336 0
v -432 -336 0
v -432 -320 0
v -416 -320 0
v -432 -336 0
v -448 -336 0
v -448 -320 0
v -432 -320 0
v -448 -336 0
v -464 -336 0
v -464 -320 0
v -448 -320 0
v -592 -336 0
v -608 -336 0
v -608 -320 0
v -592 -320 0
v -608 -336 0
v -624 -336 0
v -624 -320 0
v -608 -320 0
v -624 -336 0
v -640 -336 0
v -640 -320 0
v -624 -320 0
v -400 -352 0
v -416 -352 0
v -416 -336 0
v -400 -336 0
v -416 -352 0
v -432 -352 0
v -432 -336 0
v -416 -336 0
v -432 -352 0
v -448 -352 0
v -448 -336 0
v -432 -336 0
v -448 -352 0
v -464 -352 0
v -464 -336 0
v -448 -336 0
v -592 -352 0
v -608 -352 0
v -608 -336 0
v -592 -336 0
v -608 -352 0
v -624 -352 0
v -624 -336 0
v -608 -336 0
v -624 -352 0
v -640 -352 0
v -640 -336 0
v -624 -336 0
v -400 -368 0
v -416 -368 0
v -416 -352 0
v -400 -352 0
v -416 -368 0
v -432 -368 0
v -432 -352 0
v -416 -352 0
v -432 -368 0
v -448 -368 0
v -448 -352 0
v -432 -352 0
v -448 -368 0
v -464 -368 0
v -464 -352 0
v -448 -352 0
v -592 -368 0
v -608 -368 0
v -608 -352 0
v -592 -352 0
v -608 -368 0
v -624 -368 0
v -624 -352 0
v -608 -352 0
v -624 -368 0
v -640 -368 0
v -640 -352 0
v -624 -352 0
v -176 -400 0
v -192 -400 0
v -192 -384 0
v -176 -384 0
v -192 -400 0
v -208 -400 0
v -208 -384 0
v -192 -384 0
v -208 -400 0
v -224 -400 0
v -224 -384 0
v -208 -384 0
v -224 -400 0
v -240 -400 0
v -240 -384 0
v -224 -384 0
v -512 -400 0
v -528 -400 0
v -528 -384 0
v -512 -384 0
v -528 -400 0
v -544 -400 0
v -544 -384 0
v -528 -384 0
v -544 -400 0
v -560 -400 0
v -560 -384 0
v -544 -384 0
v -560 -400 0
v -576 -400 0
v -576 -384 0
v -560 -384 0
v 0 -416 0
v -16 -416 0
v -16 -400 0
v 0 -400 0
v -16 -416 0
v -32 -416 0
v -32 -400 0
v -16 -400 0
v -32 -416 0
v -48 -416 0
v -48 -400 0
v -32 -400 0
v -176 -416 0
v -192 -416 0
v -192 -400 0
v -176 -400 0
v -192 -416 0
v -208 -416 0
v -208 -400 0
v -192 -400 0
v -208 -416 0
v -224 -416 0
v -224 -400 0
v -208 -400 0
v -224 -416 0
v -240 -416 0
v -240 -400 0
v -224 -400 0
v -512 -416 0
v -528 -416 0
v -528 -400 0
v -512 -400 0
v -528 -416 0
v -544 -416 0
v -544 -400 0
v -528 -400 0
v -544 -416 0
v -560 -416 0
v -560 -400 0
v -544 -400 0
v -560 -416 0
v -576 -416 0
v -576 -400 0
v -560 -400 0
v 0 -432 0
v -16 -432 0
v -16 -416 0
v 0 -416 0
v -16 -432 0
v -32 -432 0
v -32 -416 0
v -16 -416 0
v -32 -432 0
v -48 -432 0
v -48 -416 0
v -32 -416 0
v -176 -432 0
v -192 -432 0
v -192 -416 0
v -176 -416 0
v -192 -432 0
v -208 -432 0
v -208 -416 0
v -192 -416 0
v -208 -432 0
v -224 -432 0
v -224 -416 0
v -208 -416 0
v -224 -432 0
v -240 -432 0
v -240 -416 0
v -224 -416 0
v -336 -432 0
v -352 -432 0
v -352 -416 0
v -336 -416 0
v -352 -432 0
v -368 -432 0
v -368 -416 0
v -352 -416 0
v -512 -432 0
v -528 -432 0
v -528 -416 0
v -512 -416 0
v -528 -432 0
v -544 -432 0
v -544 -416 0
v -528 -416 0
v -544 -432 0
v -560 -432 0
v -560 -416 0
v -544 -416 0
v -560 -432 0
v -576 -432 0
v -576 -416 0
v -560 -416 0
v 0 -448 0
v -16 -448 0
v -16 -432 0
v 0 -432 0
v -16 -448 0
v -32 -448 0
v -32 -432 0
v -16 -432 0
v -32 -448 0
v -48 -448 0
v -48 -432 0
v -32 -432 0
v -176 -448 0
v -192 -448 0
v -192 -432 0
v -176 -432 0
v -192 -448 0
v -208 -448 0
v -208 -432 0
v -192 -432 0
v -208 -448 0
v -224 -448 0
v -224 -432 0
v -208 -432 0
v -224 -448 0
v -240 -448 0
v -240 -432 0
v -224 -432 0
v -512 -448 0
v -528 -448 0
v -528 -432 0
v -512 -432 0
v -528 -448 0
v -544 -448 0
v -544 -432 0
v -528 -432 0
v -544 -448 0
v -560 -448 0
v -560 -432 0
v -544 -432 0
v -560 -448 0
v -576 -448 0
v -576 -432 0
v -560 -432 0
v 0 -464 0
v -16 -464 0
v -16 -448 0
v 0 -448 0
v -16 -464 0
v -32 -464 0
v -32 -448 0
v -16 -448 0
v -32 -464 0
v -48 -464 0
v -48 -448 0
v -32 -448 0

# Texture cooridinates (Count = 49)
vt 0.6666667 0.1875
vt 0.7 0.1875
vt 0.7 0.25
vt 0.6666667 0.25
vt 0.8666667 0.875
vt 0.9 0.875
vt 0.9 0.9375
vt 0.8666667 0.9375
vt 0.9333333 0.875
vt 0.9333333 0.9375
vt 0.9666666 0.875
vt 0.9666666 0.9375
vt 1 0.875
vt 1 0.9375
vt 0.6333333 0.125
vt 0.6666667 0.125
vt 0.6333333 0.1875
vt 0.7 0.125
vt 0.7333333 0.125
vt 0.7333333 0.1875
vt 0.8666667 0.8125
vt 0.9 0.8125
vt 0.9333333 0.8125
vt 0.9666666 0.8125
vt 1 0.8125
vt 0.6333333 0.0625
vt 0.6666667 0.0625
vt 0.7 0.0625
vt 0.7333333 0.0625
vt 0.8666667 0.75
vt 0.9 0.75
vt 0.9333333 0.75
vt 0.9666666 0.75
vt 1 0.75
vt 0.6 0.0625
vt 0.6 0.125
vt 0.7666667 0.0625
vt 0.7666667 0.125
vt 0.8666667 0.6875
vt 0.9 0.6875
vt 0.9333333 0.6875
vt 0.9666666 0.6875
vt 1 0.6875
vt 0.8 0.5
vt 0.8333333 0.5
vt 0.8333333 0.5625
vt 0.8 0.5625
vt 0.8666667 0.5
vt 0.8666667 0.5625

# Normal
vn 0 0 -1

# Mesh description
g Foret_des_Espoirs_mesh_0004

# Faces
f 1/1/1 2/2/1 3/3/1 4/4/1
f 5/5/1 6/6/1 7/7/1 8/8/1
f 9/6/1 10/9/1 11/10/1 12/7/1
f 13/9/1 14/11/1 15/12/1 16/10/1
f 17/11/1 18/13/1 19/14/1 20/12/1
f 21/15/1 22/16/1 23/1/1 24/17/1
f 25/16/1 26/18/1 27/2/1 28/1/1
f 29/18/1 30/19/1 31/20/1 32/2/1
f 33/21/1 34/22/1 35/6/1 36/5/1
f 37/22/1 38/23/1 39/9/1 40/6/1
f 41/23/1 42/24/1 43/11/1 44/9/1
f 45/24/1 46/25/1 47/13/1 48/11/1
f 49/15/1 50/16/1 51/1/1 52/17/1
f 53/26/1 54/27/1 55/16/1 56/15/1
f 57/16/1 58/18/1 59/2/1 60/1/1
f 61/28/1 62/29/1 63/19/1 64/18/1
f 65/18/1 66/19/1 67/20/1 68/2/1
f 69/5/1 70/6/1 71/7/1 72/8/1
f 73/6/1 74/9/1 75/10/1 76/7/1
f 77/9/1 78/11/1 79/12/1 80/10/1
f 81/11/1 82/13/1 83/14/1 84/12/1
f 85/30/1 86/31/1 87/22/1 88/21/1
f 89/31/1 90/32/1 91/23/1 92/22/1
f 93/32/1 94/33/1 95/24/1 96/23/1
f 97/33/1 98/34/1 99/25/1 100/24/1
f 101/35/1 102/26/1 103/15/1 104/36/1
f 105/26/1 106/27/1 107/16/1 108/15/1
f 109/26/1 110/27/1 111/16/1 112/15/1
f 113/16/1 114/18/1 115/2/1 116/1/1
f 117/28/1 118/29/1 119/19/1 120/18/1
f 121/28/1 122/29/1 123/19/1 124/18/1
f 125/29/1 126/37/1 127/38/1 128/19/1
f 129/21/1 130/22/1 131/6/1 132/5/1
f 133/22/1 134/23/1 135/9/1 136/6/1
f 137/23/1 138/24/1 139/11/1 140/9/1
f 141/24/1 142/25/1 143/13/1 144/11/1
f 145/5/1 146/6/1 147/7/1 148/8/1
f 149/6/1 150/9/1 151/10/1 152/7/1
f 153/9/1 154/11/1 155/12/1 156/10/1
f 157/11/1 158/13/1 159/14/1 160/12/1
f 161/39/1 162/40/1 163/31/1 164/30/1
f 165/40/1 166/41/1 167/32/1 168/31/1
f 169/41/1 170/42/1 171/33/1 172/32/1
f 173/42/1 174/43/1 175/34/1 176/33/1
f 177/30/1 178/31/1 179/22/1 180/21/1
f 181/31/1 182/32/1 183/23/1 184/22/1
f 185/32/1 186/33/1 187/24/1 188/23/1
f 189/33/1 190/34/1 191/25/1 192/24/1
f 193/21/1 194/22/1 195/6/1 196/5/1
f 197/22/1 198/23/1 199/9/1 200/6/1
f 201/23/1 202/24/1 203/11/1 204/9/1
f 205/24/1 206/25/1 207/13/1 208/11/1
f 209/39/1 210/40/1 211/31/1 212/30/1
f 213/40/1 214/41/1 215/32/1 216/31/1
f 217/41/1 218/42/1 219/33/1 220/32/1
f 221/42/1 222/43/1 223/34/1 224/33/1
f 225/30/1 226/31/1 227/22/1 228/21/1
f 229/31/1 230/32/1 231/23/1 232/22/1
f 233/32/1 234/33/1 235/24/1 236/23/1
f 237/33/1 238/34/1 239/25/1 240/24/1
f 241/39/1 242/40/1 243/31/1 244/30/1
f 245/40/1 246/41/1 247/32/1 248/31/1
f 249/41/1 250/42/1 251/33/1 252/32/1
f 253/42/1 254/43/1 255/34/1 256/33/1
f 257/44/1 258/45/1 259/46/1 260/47/1
f 261/45/1 262/48/1 263/49/1 264/46/1
f 265/5/1 266/6/1 267/7/1 268/8/1
f 269/6/1 270/9/1 271/10/1 272/7/1
f 273/9/1 274/11/1 275/12/1 276/10/1
f 277/11/1 278/13/1 279/14/1 280/12/1
f 281/21/1 282/22/1 283/6/1 284/5/1
f 285/22/1 286/23/1 287/9/1 288/6/1
f 289/23/1 290/24/1 291/11/1 292/9/1
f 293/24/1 294/25/1 295/13/1 296/11/1
f 297/30/1 298/31/1 299/22/1 300/21/1
f 301/31/1 302/32/1 303/23/1 304/22/1
f 305/32/1 306/33/1 307/24/1 308/23/1
f 309/33/1 310/34/1 311/25/1 312/24/1
f 313/44/1 314/45/1 315/46/1 316/47/1
f 317/45/1 318/48/1 319/49/1 320/46/1
f 321/39/1 322/40/1 323/31/1 324/30/1
f 325/40/1 326/41/1 327/32/1 328/31/1
f 329/41/1 330/42/1 331/33/1 332/32/1
f 333/42/1 334/43/1 335/34/1 336/33/1
f 337/44/1 338/45/1 339/46/1 340/47/1
f 341/45/1 342/48/1 343/49/1 344/46/1
f 345/5/1 346/6/1 347/7/1 348/8/1
f 349/6/1 350/9/1 351/10/1 352/7/1
f 353/9/1 354/11/1 355/12/1 356/10/1
f 357/11/1 358/13/1 359/14/1 360/12/1
f 361/5/1 362/6/1 363/7/1 364/8/1
f 365/6/1 366/9/1 367/10/1 368/7/1
f 369/9/1 370/11/1 371/12/1 372/10/1
f 373/21/1 374/22/1 375/6/1 376/5/1
f 377/22/1 378/23/1 379/9/1 380/6/1
f 381/23/1 382/24/1 383/11/1 384/9/1
f 385/24/1 386/25/1 387/13/1 388/11/1
f 389/21/1 390/22/1 391/6/1 392/5/1
f 393/22/1 394/23/1 395/9/1 396/6/1
f 397/23/1 398/24/1 399/11/1 400/9/1
f 401/30/1 402/31/1 403/22/1 404/21/1
f 405/31/1 406/32/1 407/23/1 408/22/1
f 409/32/1 410/33/1 411/24/1 412/23/1
f 413/33/1 414/34/1 415/25/1 416/24/1
f 417/30/1 418/31/1 419/22/1 420/21/1
f 421/31/1 422/32/1 423/23/1 424/22/1
f 425/32/1 426/33/1 427/24/1 428/23/1
f 429/39/1 430/40/1 431/31/1 432/30/1
f 433/40/1 434/41/1 435/32/1 436/31/1
f 437/41/1 438/42/1 439/33/1 440/32/1
f 441/42/1 442/43/1 443/34/1 444/33/1
f 445/39/1 446/40/1 447/31/1 448/30/1
f 449/40/1 450/41/1 451/32/1 452/31/1
f 453/41/1 454/42/1 455/33/1 456/32/1
f 457/5/1 458/6/1 459/7/1 460/8/1
f 461/6/1 462/9/1 463/10/1 464/7/1
f 465/9/1 466/11/1 467/12/1 468/10/1
f 469/11/1 470/13/1 471/14/1 472/12/1
f 473/5/1 474/6/1 475/7/1 476/8/1
f 477/6/1 478/9/1 479/10/1 480/7/1
f 481/9/1 482/11/1 483/12/1 484/10/1
f 485/11/1 486/13/1 487/14/1 488/12/1
f 489/6/1 490/9/1 491/10/1 492/7/1
f 493/9/1 494/11/1 495/12/1 496/10/1
f 497/11/1 498/13/1 499/14/1 500/12/1
f 501/21/1 502/22/1 503/6/1 504/5/1
f 505/22/1 506/23/1 507/9/1 508/6/1
f 509/23/1 510/24/1 511/11/1 512/9/1
f 513/24/1 514/25/1 515/13/1 516/11/1
f 517/21/1 518/22/1 519/6/1 520/5/1
f 521/22/1 522/23/1 523/9/1 524/6/1
f 525/23/1 526/24/1 527/11/1 528/9/1
f 529/24/1 530/25/1 531/13/1 532/11/1
f 533/22/1 534/23/1 535/9/1 536/6/1
f 537/23/1 538/24/1 539/11/1 540/9/1
f 541/24/1 542/25/1 543/13/1 544/11/1
f 545/30/1 546/31/1 547/22/1 548/21/1
f 549/31/1 550/32/1 551/23/1 552/22/1
f 553/32/1 554/33/1 555/24/1 556/23/1
f 557/33/1 558/34/1 559/25/1 560/24/1
f 561/44/1 562/45/1 563/46/1 564/47/1
f 565/45/1 566/48/1 567/49/1 568/46/1
f 569/30/1 570/31/1 571/22/1 572/21/1
f 573/31/1 574/32/1 575/23/1 576/22/1
f 577/32/1 578/33/1 579/24/1 580/23/1
f 581/33/1 582/34/1 583/25/1 584/24/1
f 585/31/1 586/32/1 587/23/1 588/22/1
f 589/32/1 590/33/1 591/24/1 592/23/1
f 593/33/1 594/34/1 595/25/1 596/24/1
f 597/39/1 598/40/1 599/31/1 600/30/1
f 601/40/1 602/41/1 603/32/1 604/31/1
f 605/41/1 606/42/1 607/33/1 608/32/1
f 609/42/1 610/43/1 611/34/1 612/33/1
f 613/39/1 614/40/1 615/31/1 616/30/1
f 617/40/1 618/41/1 619/32/1 620/31/1
f 621/41/1 622/42/1 623/33/1 624/32/1
f 625/42/1 626/43/1 627/34/1 628/33/1
f 629/40/1 630/41/1 631/32/1 632/31/1
f 633/41/1 634/42/1 635/33/1 636/32/1
f 637/42/1 638/43/1 639/34/1 640/33/1

