# Tiled2Unity generated file. Do not modify by hand.
# Wavefront file for 'Foret_des_Espoirs_mesh_0005.obj'

# Vertices (Count = 180)
v -208 -96 0
v -224 -96 0
v -224 -80 0
v -208 -80 0
v -224 -96 0
v -240 -96 0
v -240 -80 0
v -224 -80 0
v -240 -96 0
v -256 -96 0
v -256 -80 0
v -240 -80 0
v -256 -96 0
v -272 -96 0
v -272 -80 0
v -256 -80 0
v -480 -112 0
v -496 -112 0
v -496 -96 0
v -480 -96 0
v -496 -112 0
v -512 -112 0
v -512 -96 0
v -496 -96 0
v -512 -112 0
v -528 -112 0
v -528 -96 0
v -512 -96 0
v -528 -112 0
v -544 -112 0
v -544 -96 0
v -528 -96 0
v -16 -144 0
v -32 -144 0
v -32 -128 0
v -16 -128 0
v -32 -144 0
v -48 -144 0
v -48 -128 0
v -32 -128 0
v -48 -144 0
v -64 -144 0
v -64 -128 0
v -48 -128 0
v -64 -144 0
v -80 -144 0
v -80 -128 0
v -64 -128 0
v -176 -176 0
v -192 -176 0
v -192 -160 0
v -176 -160 0
v -192 -176 0
v -208 -176 0
v -208 -160 0
v -192 -160 0
v -544 -272 0
v -560 -272 0
v -560 -256 0
v -544 -256 0
v -560 -272 0
v -576 -272 0
v -576 -256 0
v -560 -256 0
v -576 -272 0
v -592 -272 0
v -592 -256 0
v -576 -256 0
v -592 -272 0
v -608 -272 0
v -608 -256 0
v -592 -256 0
v -64 -288 0
v -80 -288 0
v -80 -272 0
v -64 -272 0
v -80 -288 0
v -96 -288 0
v -96 -272 0
v -80 -272 0
v -96 -288 0
v -112 -288 0
v -112 -272 0
v -96 -272 0
v -112 -288 0
v -128 -288 0
v -128 -272 0
v -112 -272 0
v -224 -288 0
v -240 -288 0
v -240 -272 0
v -224 -272 0
v -240 -288 0
v -256 -288 0
v -256 -272 0
v -240 -272 0
v -256 -288 0
v -272 -288 0
v -272 -272 0
v -256 -272 0
v -272 -288 0
v -288 -288 0
v -288 -272 0
v -272 -272 0
v -400 -384 0
v -416 -384 0
v -416 -368 0
v -400 -368 0
v -416 -384 0
v -432 -384 0
v -432 -368 0
v -416 -368 0
v -432 -384 0
v -448 -384 0
v -448 -368 0
v -432 -368 0
v -448 -384 0
v -464 -384 0
v -464 -368 0
v -448 -368 0
v -608 -384 0
v -624 -384 0
v -624 -368 0
v -608 -368 0
v -624 -384 0
v -640 -384 0
v -640 -368 0
v -624 -368 0
v -336 -448 0
v -352 -448 0
v -352 -432 0
v -336 -432 0
v -352 -448 0
v -368 -448 0
v -368 -432 0
v -352 -432 0
v -176 -464 0
v -192 -464 0
v -192 -448 0
v -176 -448 0
v -192 -464 0
v -208 -464 0
v -208 -448 0
v -192 -448 0
v -208 -464 0
v -224 -464 0
v -224 -448 0
v -208 -448 0
v -224 -464 0
v -240 -464 0
v -240 -448 0
v -224 -448 0
v -512 -464 0
v -528 -464 0
v -528 -448 0
v -512 -448 0
v -528 -464 0
v -544 -464 0
v -544 -448 0
v -528 -448 0
v -544 -464 0
v -560 -464 0
v -560 -448 0
v -544 -448 0
v -560 -464 0
v -576 -464 0
v -576 -448 0
v -560 -448 0
v 0 -480 0
v -16 -480 0
v -16 -464 0
v 0 -464 0
v -16 -480 0
v -32 -480 0
v -32 -464 0
v -16 -464 0
v -32 -480 0
v -48 -480 0
v -48 -464 0
v -32 -464 0

# Texture cooridinates (Count = 16)
vt 0.8666667 0.05882353
vt 0.9 0.05882353
vt 0.9 0.1176471
vt 0.8666667 0.1176471
vt 0.9333333 0.05882353
vt 0.9333333 0.1176471
vt 0.9666666 0.05882353
vt 0.9666666 0.1176471
vt 1 0.05882353
vt 1 0.1176471
vt 0.8 0.1764706
vt 0.8333333 0.1764706
vt 0.8333333 0.2352941
vt 0.8 0.2352941
vt 0.8666667 0.1764706
vt 0.8666667 0.2352941

# Normal
vn 0 0 -1

# Mesh description
g Foret_des_Espoirs_mesh_0005

# Faces
f 1/1/1 2/2/1 3/3/1 4/4/1
f 5/2/1 6/5/1 7/6/1 8/3/1
f 9/5/1 10/7/1 11/8/1 12/6/1
f 13/7/1 14/9/1 15/10/1 16/8/1
f 17/1/1 18/2/1 19/3/1 20/4/1
f 21/2/1 22/5/1 23/6/1 24/3/1
f 25/5/1 26/7/1 27/8/1 28/6/1
f 29/7/1 30/9/1 31/10/1 32/8/1
f 33/1/1 34/2/1 35/3/1 36/4/1
f 37/2/1 38/5/1 39/6/1 40/3/1
f 41/5/1 42/7/1 43/8/1 44/6/1
f 45/7/1 46/9/1 47/10/1 48/8/1
f 49/11/1 50/12/1 51/13/1 52/14/1
f 53/12/1 54/15/1 55/16/1 56/13/1
f 57/1/1 58/2/1 59/3/1 60/4/1
f 61/2/1 62/5/1 63/6/1 64/3/1
f 65/5/1 66/7/1 67/8/1 68/6/1
f 69/7/1 70/9/1 71/10/1 72/8/1
f 73/1/1 74/2/1 75/3/1 76/4/1
f 77/2/1 78/5/1 79/6/1 80/3/1
f 81/5/1 82/7/1 83/8/1 84/6/1
f 85/7/1 86/9/1 87/10/1 88/8/1
f 89/1/1 90/2/1 91/3/1 92/4/1
f 93/2/1 94/5/1 95/6/1 96/3/1
f 97/5/1 98/7/1 99/8/1 100/6/1
f 101/7/1 102/9/1 103/10/1 104/8/1
f 105/1/1 106/2/1 107/3/1 108/4/1
f 109/2/1 110/5/1 111/6/1 112/3/1
f 113/5/1 114/7/1 115/8/1 116/6/1
f 117/7/1 118/9/1 119/10/1 120/8/1
f 121/11/1 122/12/1 123/13/1 124/14/1
f 125/12/1 126/15/1 127/16/1 128/13/1
f 129/11/1 130/12/1 131/13/1 132/14/1
f 133/12/1 134/15/1 135/16/1 136/13/1
f 137/1/1 138/2/1 139/3/1 140/4/1
f 141/2/1 142/5/1 143/6/1 144/3/1
f 145/5/1 146/7/1 147/8/1 148/6/1
f 149/7/1 150/9/1 151/10/1 152/8/1
f 153/1/1 154/2/1 155/3/1 156/4/1
f 157/2/1 158/5/1 159/6/1 160/3/1
f 161/5/1 162/7/1 163/8/1 164/6/1
f 165/7/1 166/9/1 167/10/1 168/8/1
f 169/2/1 170/5/1 171/6/1 172/3/1
f 173/5/1 174/7/1 175/8/1 176/6/1
f 177/7/1 178/9/1 179/10/1 180/8/1

